<svg xmlns="http://www.w3.org/2000/svg" viewBox="0 0 307.53 522.37"><defs><linearGradient id="a" x1="385.73" y1="-18.6" x2="-36.55" y2="491.88" gradientUnits="userSpaceOnUse"><stop offset="0" stop-color="#fff"/><stop offset=".09" stop-color="#f4f4f4" stop-opacity=".96"/><stop offset=".24" stop-color="#d5d5d5" stop-opacity=".84"/><stop offset=".44" stop-color="#a4a4a4" stop-opacity=".64"/><stop offset=".69" stop-color="#606060" stop-opacity=".38"/><stop offset=".97" stop-color="#0a0a0a" stop-opacity=".04"/><stop offset="1" stop-opacity="0"/></linearGradient></defs><g data-name="Layer 2"><g style="opacity:.5" data-name="Layer 1"><path d="M117.59 313.05v-71.56l3.28-2.41h58.25v-17.42h-61.53v-37c0-52.66-6-153.28 49.51-167.78 8.38-2.14 20.39-2.14 28.76 2.15-3.35 18.47-12.63 42 11.29 52.52 38 16.49 59.7-31.63 20.39-60.57C210.79-1.59 178-1.86 157.64 2.7A125.1 125.1 0 0 0 121.23 18C56.86 58.58 58.52 157 58.52 222.93H.09L0 223l.36 13.94c4.39 5 48.15 2.41 57.52 2.41v189L59 505l-58.62.27-.38 17.1h179.12v-10.45l-.37-6.7c-13.1 0-52.78 3.49-61.16-1.61V313.05Zm163.7-109.66a26.23 26.23 0 1 1-26.23 26.23 26.23 26.23 0 0 1 26.23-26.23Z" style="fill:url(#a)"/></g></g></svg>