<svg xmlns="http://www.w3.org/2000/svg" viewBox="0 0 389.47 84.64"><defs><style>.cls-1{fill:#fff}</style></defs><g id="Layer_2" data-name="Layer 2"><g id="Layer_1-2" data-name="Layer 1"><path class="cls-1" d="M55.89 84.64 0 28.76 28.75 0H83l28.77 28.75ZM7.8 28.76l48.09 48.08L104 28.75 80.72 5.51H31Z"/><path class="cls-1" d="M64.68 32.47v1.76H58.5V61h6.18v1.76h-18V61h5.88V34.23h-5.9v-1.76h5.88v-3.74c0-13.06 5.42-18.56 12.75-18.56 3 0 6.42 1.37 6.42 5a2.76 2.76 0 0 1-2.83 2.52c-2.06 0-3.13-1.45-3.13-3.51 0-.84.61-.91.61-1.91 0-.38-1.3-.46-1.83-.46-3.67 0-6 4.43-6 12.07v8.63ZM77.69 33.23a2.77 2.77 0 1 1-2.76-2.76 2.76 2.76 0 0 1 2.76 2.76M146.29 32v1.82h-6.41V61.5h6.41v1.82h-18.67V61.5h6.09V33.79h-6.1V32h6.1v-3.91a33.48 33.48 0 0 1 1-8.7 17.37 17.37 0 0 1 2.77-6 11 11 0 0 1 4.2-3.44 12.43 12.43 0 0 1 5.26-1.11 10.73 10.73 0 0 1 2.38.27 6.72 6.72 0 0 1 2.14.91 5.19 5.19 0 0 1 1.54 1.61 4.34 4.34 0 0 1 .59 2.37 2.25 2.25 0 0 1-.95 1.9 3.2 3.2 0 0 1-2 .71 2.92 2.92 0 0 1-2.42-1 4 4 0 0 1-.82-2.61 1.13 1.13 0 0 1 .32-.91A1.39 1.39 0 0 0 148 11q0-.32-.75-.39c-.5 0-.88-.08-1.15-.08q-2.85 0-4.55 3.28T139.88 23v9ZM181.58 57.85a6.79 6.79 0 0 1-2.06 4.63 6.42 6.42 0 0 1-4.67 1.86 4.61 4.61 0 0 1-3.48-1.3 6.6 6.6 0 0 1-1.67-3.52 12.15 12.15 0 0 1-4.86 3.68 15.57 15.57 0 0 1-9.38.75 8.07 8.07 0 0 1-2.93-1.31 6.4 6.4 0 0 1-2-2.37 8 8 0 0 1-.75-3.68q.15-5.54 5.46-8.51t14.4-3v-7.49a4.77 4.77 0 0 0-.51-2.34 4.51 4.51 0 0 0-1.31-1.46A5.16 5.16 0 0 0 166 33a9.05 9.05 0 0 0-2.06-.24q-.63 0-1.86.12a16.13 16.13 0 0 0-2.45.43 8.19 8.19 0 0 0-2.14.88 1.62 1.62 0 0 0-.91 1.42q0 .24.36.48c.23.15.51.35.83.59a3.1 3.1 0 0 1 1.19 2.57 3.36 3.36 0 0 1-.87 2.42 3.19 3.19 0 0 1-2.38.91 3 3 0 0 1-2.45-1.07 4.18 4.18 0 0 1-.87-2.73 5.44 5.44 0 0 1 .61-2.38 7.45 7.45 0 0 1 2.14-2.49 12.47 12.47 0 0 1 3.91-1.91 19.38 19.38 0 0 1 6-.79 20.06 20.06 0 0 1 6.22.75 7.32 7.32 0 0 1 3.2 1.94 4.66 4.66 0 0 1 1.19 2.53 23.06 23.06 0 0 1 .16 2.53v18.81a13.91 13.91 0 0 0 .2 2.73c.13.61.62.91 1.46.91a2 2 0 0 0 1.82-1.26 15.47 15.47 0 0 0 .95-2.3Zm-12-11.08a39.5 39.5 0 0 0-4.31.28 17 17 0 0 0-4.55 1.15 9.62 9.62 0 0 0-3.6 2.49 6.18 6.18 0 0 0-1.43 4.31 6.21 6.21 0 0 0 1.67 4.59 6 6 0 0 0 4.43 1.66 9.25 9.25 0 0 0 3.28-.52 8.82 8.82 0 0 0 2.81-1.73 9.94 9.94 0 0 0 1.12-1.42 6.48 6.48 0 0 0 .63-3.45ZM205.52 32v8.87h-1.74a12.53 12.53 0 0 0-3-5.7 7.9 7.9 0 0 0-5.66-2.37 7.63 7.63 0 0 0-3.92.71 7.12 7.12 0 0 0-2.2 1.74 5.1 5.1 0 0 0-1 2 7.22 7.22 0 0 0-.24 1.31 3.92 3.92 0 0 0 .28 1.54 3.19 3.19 0 0 0 1.54 1.35 20.17 20.17 0 0 0 3.84 1.38c1.71.48 4.08 1 7.09 1.66s5.19 1.66 6.41 3.09a8.88 8.88 0 0 1 1.82 5.94 10.94 10.94 0 0 1-.91 4.55 10.09 10.09 0 0 1-2.45 3.4 10.81 10.81 0 0 1-3.61 2.14 13.14 13.14 0 0 1-9.38-.24 11.39 11.39 0 0 1-4.15-2.89l-1.74 2.85h-1.74V52.86h1.82a15 15 0 0 0 4 7.09 10 10 0 0 0 7.29 2.81 8 8 0 0 0 2.69-.48 8.14 8.14 0 0 0 2.45-1.38 7.76 7.76 0 0 0 1.82-2.14 5.44 5.44 0 0 0 .71-2.81q0-2.3-3-3.6a52.38 52.38 0 0 0-8-2.57c-1.32-.32-2.57-.64-3.76-1a10.28 10.28 0 0 1-3.13-1.39 6.49 6.49 0 0 1-2.16-2.39 9 9 0 0 1-.79-4.12 10.78 10.78 0 0 1 .48-2.93 9 9 0 0 1 1.66-3.16 9.68 9.68 0 0 1 3.24-2.58 11.55 11.55 0 0 1 5.31-1.07 11.73 11.73 0 0 1 7.36 2.93l1.42-2.07ZM215.52 10.59h-4.36V8.77h1.66c1.48 0 3 0 4.48-.16a39 39 0 0 0 4.39-.56v31.51h.16a17.61 17.61 0 0 1 4.2-6.09 9.8 9.8 0 0 1 6.88-2.3 23.51 23.51 0 0 1 2.66.2 8.38 8.38 0 0 1 3.12 1 7.47 7.47 0 0 1 2.58 2.41 7.56 7.56 0 0 1 1.06 4.27v22.44h4.27v1.82h-14.55v-1.82h4.11V40.11a15.15 15.15 0 0 0-.32-3.44 4.4 4.4 0 0 0-1-2 3.32 3.32 0 0 0-1.58-.95 8.31 8.31 0 0 0-2.1-.24 6.29 6.29 0 0 0-3.76 1.23 12.52 12.52 0 0 0-3 3.17 15.63 15.63 0 0 0-2 4.31 15.86 15.86 0 0 0-.72 4.59v14.71h4.3v1.82h-14.8v-1.82h4.35ZM250.08 63.31v-1.82h5.31V33.78h-5.3V32h2.61c1.48 0 3 0 4.48-.12a22.07 22.07 0 0 0 4.39-.68v30.28h4.67v1.82Zm4.5-48.45a3.58 3.58 0 0 1 1.15-2.69 3.69 3.69 0 0 1 2.65-1.11 4.17 4.17 0 0 1 2.73 1.11 3.41 3.41 0 0 1 1.31 2.69 4.16 4.16 0 0 1-1.15 3 3.86 3.86 0 0 1-2.89 1.18 3.42 3.42 0 0 1-2.77-1.22 4.46 4.46 0 0 1-1-3M283.59 31.16a14.58 14.58 0 0 1 5.9 1.23 14.43 14.43 0 0 1 4.86 3.44 16.81 16.81 0 0 1 3.29 5.27 18.35 18.35 0 0 1 0 13.21 17 17 0 0 1-3.28 5.27 15 15 0 0 1-4.87 3.48 14.1 14.1 0 0 1-5.9 1.27 14.28 14.28 0 0 1-5.9-1.26 15 15 0 0 1-4.86-3.49 16.76 16.76 0 0 1-3.29-5.26 18.38 18.38 0 0 1 0-13.22 17.09 17.09 0 0 1 3.28-5.27 14.74 14.74 0 0 1 10.77-4.67m0 1.59a6.79 6.79 0 0 0-4.59 1.42 8.66 8.66 0 0 0-2.42 3.6 16.19 16.19 0 0 0-.91 4.83c-.08 1.77-.11 3.47-.11 5.11s0 3.42.12 5.18a15.83 15.83 0 0 0 .91 4.83 8.55 8.55 0 0 0 2.41 3.6 8.21 8.21 0 0 0 9.26 0 8.66 8.66 0 0 0 2.42-3.6 16.45 16.45 0 0 0 .91-4.83c.08-1.77.11-3.49.11-5.18s0-3.34-.12-5.11a16.13 16.13 0 0 0-.91-4.83 8.55 8.55 0 0 0-2.41-3.6 6.8 6.8 0 0 0-4.63-1.42M305.34 33.77H301V32h3.88a15 15 0 0 0 2.21-.16c.74-.05 1.48-.13 2.22-.23s1.47-.24 2.21-.4v8.39h.15a17.75 17.75 0 0 1 4.2-6.1 9.87 9.87 0 0 1 6.89-2.29 23 23 0 0 1 2.65.19 8.76 8.76 0 0 1 3.12 1 7 7 0 0 1 3.65 6.69v22.4h4.27v1.81h-14.56v-1.82H326V40.1a15.23 15.23 0 0 0-.31-3.44 4.55 4.55 0 0 0-1-2 3.35 3.35 0 0 0-1.59-1 8.25 8.25 0 0 0-2.1-.24 6.29 6.29 0 0 0-3.76 1.23 12.33 12.33 0 0 0-3 3.17 15.65 15.65 0 0 0-2 4.31 15.84 15.84 0 0 0-.71 4.59v14.76h4.27v1.82H301v-1.82h4.35ZM336.68 32h4.67v-9.79h3a23.62 23.62 0 0 0 3-.28V32h7v1.83h-7V59.19a2.69 2.69 0 0 0 .32 1.14 2.15 2.15 0 0 0 .91.88 3.65 3.65 0 0 0 1.74.35 3.49 3.49 0 0 0 2.53-.91c.63-.61 1.27-1.28 1.9-2l1.27.87a7.74 7.74 0 0 1-3.64 3.57 11 11 0 0 1-4.91 1.26 8.58 8.58 0 0 1-3.4-.55 4.37 4.37 0 0 1-1.9-1.46 5.21 5.21 0 0 1-.84-2.18 17.74 17.74 0 0 1-.19-2.69v-23.7h-4.51ZM357.64 33.77v-1.83h14.25v1.82h-4.19l7.68 22.72h.16l7.99-22.72h-4.83v-1.82h10.76l.01 1.82h-3.8l-10.92 30.56h-2.7l-10.61-30.55h-3.8z"/></g></g></svg>