<svg xmlns="http://www.w3.org/2000/svg" viewBox="0 0 348.6 57.77"><defs><style>.cls-1{fill:#fff}</style></defs><g id="Layer_2" data-name="Layer 2"><g id="Layer_1-2" data-name="Layer 1"><path class="cls-1" d="m34 54.71-34-34L17.51 3.16h33l17.56 17.51Zm-29.29-34L34 50l29.33-29.33L49.16 6.52H18.9Z"/><path class="cls-1" d="M39.39 22.94V24h-3.76v16.28h3.76v1.07h-11v-1.07H32V24h-3.58v-1.06H32v-2.28c0-8 3.3-11.3 7.77-11.3 1.81 0 3.9.83 3.9 3A1.68 1.68 0 0 1 42 13.91a1.88 1.88 0 0 1-2-2.14c0-.51.38-.55.38-1.16 0-.23-.79-.28-1.12-.28-2.23 0-3.67 2.7-3.67 7.35v5.26ZM47.32 23.4a1.69 1.69 0 1 1-1.69-1.68 1.69 1.69 0 0 1 1.69 1.68M99 24.54v1.87h-6.57v28.43H99v1.87H79.84v-1.87h6.25V26.41h-6.25v-1.87h6.25v-4a34.26 34.26 0 0 1 1-8.94A17.75 17.75 0 0 1 90 5.48 11.48 11.48 0 0 1 94.26 2a12.75 12.75 0 0 1 5.4-1.19 10.7 10.7 0 0 1 2.44.29 6.71 6.71 0 0 1 2.19.93 5.49 5.49 0 0 1 1.59 1.63 4.47 4.47 0 0 1 .61 2.43 2.3 2.3 0 0 1-1 1.95 3.32 3.32 0 0 1-2 .74A3 3 0 0 1 101 7.72a4.12 4.12 0 0 1-.85-2.72 1.23 1.23 0 0 1 .32-.94A1.4 1.4 0 0 0 100.8 3c0-.22-.26-.35-.77-.41s-.91-.08-1.18-.08q-2.92 0-4.67 3.37c-1.17 2.25-1.75 5.4-1.75 9.47v9.18ZM135.23 51.11a7 7 0 0 1-2.12 4.75 6.6 6.6 0 0 1-4.79 1.91 4.77 4.77 0 0 1-3.58-1.34 6.78 6.78 0 0 1-1.7-3.62 12.4 12.4 0 0 1-5 3.78 15.54 15.54 0 0 1-6 1.18 15.84 15.84 0 0 1-3.66-.41 8.45 8.45 0 0 1-3-1.34 6.58 6.58 0 0 1-2.07-2.44 8.13 8.13 0 0 1-.78-3.77q.16-5.69 5.61-8.74T123 38v-7.69a4.85 4.85 0 0 0-.53-2.4 4.53 4.53 0 0 0-1.34-1.5 5.46 5.46 0 0 0-1.87-.82 9.49 9.49 0 0 0-2.11-.24c-.44 0-1.07 0-1.91.12a15.87 15.87 0 0 0-2.52.45 8.09 8.09 0 0 0-2.19.89 1.68 1.68 0 0 0-.94 1.47c0 .16.12.32.37.48s.52.37.85.61a3.23 3.23 0 0 1 .85 1A3.18 3.18 0 0 1 112 32a3.42 3.42 0 0 1-.9 2.48 3.19 3.19 0 0 1-2.43.93 3.05 3.05 0 0 1-2.52-1.09 4.28 4.28 0 0 1-.9-2.8 5.58 5.58 0 0 1 .69-2.44 7.77 7.77 0 0 1 2.2-2.56 12.85 12.85 0 0 1 4-2 20 20 0 0 1 6.14-.82 20.2 20.2 0 0 1 6.37.78 7.37 7.37 0 0 1 3.29 2 4.76 4.76 0 0 1 1.22 2.6 22 22 0 0 1 .16 2.6V51a13.8 13.8 0 0 0 .21 2.8q.19.93 1.5.93a2 2 0 0 0 1.87-1.3 15.1 15.1 0 0 0 1-2.35ZM123 39.73a39.29 39.29 0 0 0-4.43.29 17.87 17.87 0 0 0-4.67 1.17 10 10 0 0 0-3.7 2.56 6.37 6.37 0 0 0-1.5 4.43 6.37 6.37 0 0 0 1.7 4.71 6.15 6.15 0 0 0 4.55 1.71 9.56 9.56 0 0 0 3.38-.53 9.33 9.33 0 0 0 2.88-1.83 10.83 10.83 0 0 0 1.14-1.42 6.7 6.7 0 0 0 .65-3.53ZM159.8 24.54v9.1H158a12.83 12.83 0 0 0-3-5.85 8.15 8.15 0 0 0-5.81-2.44 8 8 0 0 0-4 .73 7.3 7.3 0 0 0-2.32 1.83 5.21 5.21 0 0 0-1 2 7.11 7.11 0 0 0-.25 1.34 4.14 4.14 0 0 0 .29 1.59 3.21 3.21 0 0 0 1.58 1.38 20.94 20.94 0 0 0 3.94 1.42c1.76.49 4.19 1.06 7.27 1.71s5.34 1.7 6.58 3.16a9.12 9.12 0 0 1 1.87 6.1 11.29 11.29 0 0 1-.93 4.67 10.3 10.3 0 0 1-2.52 3.49 11.36 11.36 0 0 1-3.7 2.2 13.47 13.47 0 0 1-9.63-.25 11.65 11.65 0 0 1-4.26-3l-1.79 2.92h-1.79V46h1.87a15.42 15.42 0 0 0 4.06 7.27 10.24 10.24 0 0 0 7.48 2.88 8.33 8.33 0 0 0 5.28-1.91A8 8 0 0 0 159 52a5.61 5.61 0 0 0 .73-2.88c0-1.57-1-2.81-3.05-3.7a54.61 54.61 0 0 0-8.16-2.64c-1.36-.33-2.64-.65-3.86-1a10.21 10.21 0 0 1-3.21-1.42 6.66 6.66 0 0 1-2.19-2.48 9 9 0 0 1-.82-4.22 11.36 11.36 0 0 1 .49-3 9.62 9.62 0 0 1 1.71-3.25 10 10 0 0 1 3.36-2.59 11.8 11.8 0 0 1 5.44-1.09 12 12 0 0 1 7.56 3l1.46-2.19ZM170.06 2.6h-4.46V.73h1.7c1.52 0 3 0 4.59-.16A40.54 40.54 0 0 0 176.4 0v32.34h.16a18.15 18.15 0 0 1 4.31-6.26 10.13 10.13 0 0 1 7.07-2.35 22.35 22.35 0 0 1 2.72.2 8.68 8.68 0 0 1 3.21 1.07 7.56 7.56 0 0 1 2.64 2.47 7.77 7.77 0 0 1 1.1 4.39v23H202v1.87h-14.95v-1.89h4.22V32.91a15.34 15.34 0 0 0-.33-3.54 4.47 4.47 0 0 0-1-2.07 3.4 3.4 0 0 0-1.63-1 8.67 8.67 0 0 0-2.15-.24 6.46 6.46 0 0 0-3.86 1.26 12.83 12.83 0 0 0-3.09 3.25 17.1 17.1 0 0 0-2.8 9.14v15.13h4.39v1.87h-15.2v-1.87h4.46ZM205.53 56.71v-1.87H211V26.41h-5.44v-1.87h2.68q2.28 0 4.59-.12a24.07 24.07 0 0 0 4.51-.69v31.11h4.79v1.87ZM210.16 7a3.67 3.67 0 0 1 1.18-2.76 3.78 3.78 0 0 1 2.72-1.14 4.28 4.28 0 0 1 2.8 1.14A3.47 3.47 0 0 1 218.2 7a4.23 4.23 0 0 1-1.2 3.07 3.91 3.91 0 0 1-3 1.22 3.48 3.48 0 0 1-2.78-1.29 4.52 4.52 0 0 1-1.06-3M239.93 23.73A15.1 15.1 0 0 1 246 25a14.92 14.92 0 0 1 5 3.54 17.45 17.45 0 0 1 3.37 5.4 18.9 18.9 0 0 1 0 13.57 17.22 17.22 0 0 1-3.37 5.4 15.32 15.32 0 0 1-5 3.58 14.73 14.73 0 0 1-12.1 0 15.32 15.32 0 0 1-5-3.58 17.22 17.22 0 0 1-3.37-5.4 18.9 18.9 0 0 1 0-13.57 17.45 17.45 0 0 1 3.37-5.4 14.92 14.92 0 0 1 5-3.54 15.1 15.1 0 0 1 6.05-1.25m0 1.62a7 7 0 0 0-4.75 1.46 8.87 8.87 0 0 0-2.48 3.7 16.94 16.94 0 0 0-.94 5c-.08 1.81-.12 3.56-.12 5.24s0 3.5.12 5.32a16.94 16.94 0 0 0 .92 4.91 8.75 8.75 0 0 0 2.48 3.7 8.46 8.46 0 0 0 9.5 0 8.75 8.75 0 0 0 2.48-3.7 16.62 16.62 0 0 0 .93-4.95c.09-1.82.13-3.59.13-5.32s0-3.43-.13-5.24a16.62 16.62 0 0 0-.93-5 8.87 8.87 0 0 0-2.48-3.7 7 7 0 0 0-4.75-1.46M262.26 26.41h-4.47v-1.87h4a17.32 17.32 0 0 0 2.27-.16c.76-.06 1.52-.14 2.28-.25s1.51-.24 2.27-.41v8.62h.17a18 18 0 0 1 4.3-6.26 10.13 10.13 0 0 1 7.07-2.36 22.68 22.68 0 0 1 2.72.21 8.85 8.85 0 0 1 3.19 1.07 7.68 7.68 0 0 1 2.64 2.48 7.77 7.77 0 0 1 1.1 4.39v23h4.39v1.87h-14.95v-1.9h4.22V32.91a16 16 0 0 0-.32-3.54 4.57 4.57 0 0 0-1-2.07 3.32 3.32 0 0 0-1.62-1 8.27 8.27 0 0 0-2.16-.25 6.46 6.46 0 0 0-3.86 1.26 12.63 12.63 0 0 0-3.08 3.25 16.1 16.1 0 0 0-2.1 4.44 16.62 16.62 0 0 0-.73 4.71v15.13H273v1.87h-15.21v-1.87h4.47ZM294.42 24.54h4.8v-10h3.12a22.75 22.75 0 0 0 3.05-.28v10.28h7.15v1.87h-7.15v26.08a2.93 2.93 0 0 0 .33 1.18 2.29 2.29 0 0 0 .93.89 3.7 3.7 0 0 0 1.79.37 3.62 3.62 0 0 0 2.6-.94 28.08 28.08 0 0 0 1.96-2.07l1.3.89a8 8 0 0 1-3.74 3.66 11.31 11.31 0 0 1-5 1.3 8.85 8.85 0 0 1-3.49-.57 4.47 4.47 0 0 1-1.95-1.5 5.24 5.24 0 0 1-.85-2.24 17.19 17.19 0 0 1-.21-2.76V26.41h-4.63ZM315.94 26.41v-1.87h14.62v1.87h-4.3l7.88 23.32h.16l8.2-23.32h-4.95v-1.87h11.05v1.87h-3.9l-11.21 31.36h-2.77l-10.88-31.36h-3.9z"/></g></g></svg>