<svg xmlns="http://www.w3.org/2000/svg" viewBox="0 0 664.53 428.02"><defs><style>.cls-1{opacity:0.29;}.cls-2{fill:#cacaca;}.cls-3{fill:#fff;}</style></defs><title>Asset 2</title><g id="Layer_2" data-name="Layer 2"><g id="Layer_1-2" data-name="Layer 1"><g class="cls-1"><path class="cls-2" d="M298.24,160.73a1.38,1.38,0,0,0,1.42,1.12.67.67,0,0,0,.2,0,.46.46,0,0,0,.19-.08,1.38,1.38,0,0,0,.93-1.55,1.39,1.39,0,0,0-2.74.51Z"/><path class="cls-2" d="M298.5,170.67a.56.56,0,0,0,.08-.38l-.1-.55a.51.51,0,0,0-.21-.32.52.52,0,0,0-.38-.09l-1.46.27-1.37-7.44,1.46-.27a.54.54,0,0,0,.32-.21.47.47,0,0,0,.08-.38l-.1-.56a.51.51,0,0,0-.21-.32.52.52,0,0,0-.38-.09l-1.46.27-.41-2.22a5.91,5.91,0,0,1,0-2.67c.18-.56.42-.79.75-.88a.65.65,0,0,0,0,.24,1.69,1.69,0,0,0,.57,1.06,1.43,1.43,0,0,0,1.2.28,1.61,1.61,0,0,0,.86-.5,1.26,1.26,0,0,0,.3-1,1.87,1.87,0,0,0-1.19-1.46,3.06,3.06,0,0,0-1.71-.14,4,4,0,0,0-3,2.19,8,8,0,0,0-.37,5l.13.68-1.36.25a.56.56,0,0,0-.33.21.51.51,0,0,0-.07.38l.1.56a.47.47,0,0,0,.21.32.45.45,0,0,0,.37.08l1.36-.25,1.38,7.45-1.36.25a.5.5,0,0,0-.41.59l.11.55a.54.54,0,0,0,.2.33.56.56,0,0,0,.38.08l5.69-1.05A.49.49,0,0,0,298.5,170.67Z"/><path class="cls-2" d="M376.59,161.53a1.37,1.37,0,0,0,1,1.48.6.6,0,0,0,.19.06.44.44,0,0,0,.2,0,1.39,1.39,0,0,0,1.36-1.2,1.41,1.41,0,0,0-1.23-1.55A1.4,1.4,0,0,0,376.59,161.53Z"/><path class="cls-2" d="M373.9,171.1a.51.51,0,0,0,.19-.34l.06-.56a.5.5,0,0,0-.1-.37.53.53,0,0,0-.34-.19l-1.47-.17.88-7.52,1.48.17a.5.5,0,0,0,.37-.1.58.58,0,0,0,.19-.34l.06-.57a.5.5,0,0,0-.1-.37.53.53,0,0,0-.34-.19l-1.47-.17.26-2.25a5.9,5.9,0,0,1,.78-2.55c.34-.48.64-.63,1-.62a.86.86,0,0,0-.06.23,1.73,1.73,0,0,0,.23,1.18,1.43,1.43,0,0,0,1.07.62,1.52,1.52,0,0,0,1-.22,1.25,1.25,0,0,0,.6-.92,1.88,1.88,0,0,0-.71-1.74,3.18,3.18,0,0,0-1.59-.64,4,4,0,0,0-3.51,1.21,8,8,0,0,0-1.82,4.68l-.08.68-1.38-.16a.47.47,0,0,0-.37.11.48.48,0,0,0-.18.33l-.07.57a.5.5,0,0,0,.1.37.55.55,0,0,0,.34.19l1.37.16-.88,7.52L368,169a.48.48,0,0,0-.55.44l-.07.56a.5.5,0,0,0,.1.37.55.55,0,0,0,.34.19l5.74.67A.49.49,0,0,0,373.9,171.1Z"/><path class="cls-2" d="M388.37,219.18a.73.73,0,0,0-.46-.27,1.83,1.83,0,0,1-.54-.2h0a1.13,1.13,0,0,1-.07-.51,5.59,5.59,0,0,1,0-.57l.94-9.69v-.27a1.25,1.25,0,0,0-.06-.43.88.88,0,0,0-.58-.53.74.74,0,0,0-.69.18l-.23.21-.12.15L382,214.69,380.25,206l-.16-.44a1,1,0,0,0-.55-.41.76.76,0,0,0-.78.28l-.18.25-.12.24-2.82,9.93h0a5.53,5.53,0,0,1-.22.66h-.21l-.17-.06-.13-.15a4,4,0,0,1-.37-1.22h0c-.45-2.48-1.6-9.21-1.71-9.84a2.76,2.76,0,0,0-.14-.61l-.21-.36-.47-.23h-.12a.81.81,0,0,0-.54.21l-.28.36-.21.43-4.27,9.31h0a3.14,3.14,0,0,1-.43.76l-.2.13-.32,0h-.07l-.14,0a.34.34,0,0,0-.14.05.07.07,0,0,0-.06,0l-.14.07a.75.75,0,0,0-.37.61.73.73,0,0,0,.32.64l.22.16.33.12c.6.09,1.28.14,1.47.16l.39.08.61.11.44-.07.2-.11a.73.73,0,0,0,.4-.53.72.72,0,0,0-.21-.64l-.11-.12-.3-.14a3.14,3.14,0,0,1,.21-.57v0l1-2.26,1.86.25.58,3.43h0l-.22.44v.1a.81.81,0,0,0,.29.61,1,1,0,0,0,.42.2l.25.06h0c.89.16,1.83.29,2.05.32h.23l.59.09.29,0,.09,0h.06l.44.1c.22.05.48.11.73.15l.37,0,.26-.09a.75.75,0,0,0,.48-.53.76.76,0,0,0-.2-.7l-.09-.08-.31-.19-.16-.06a3.49,3.49,0,0,1,.12-.55l1-4c.15.81.27,1.48.29,1.59s.64,3.07.83,3.91h0c.07.31.11.5.16.67l.15.33a.91.91,0,0,0,.53.34h0l.12,0a.92.92,0,0,0,.54-.2l.31-.38a5.71,5.71,0,0,0,.32-.5h0l3-4.83-.55,5h0l0,.19a.74.74,0,0,0-.24.42v.13l.13.44a.83.83,0,0,0,.39.34l.34.13c.53.14,1.85.45,2.21.51h.31l.3-.08a.77.77,0,0,0,.51-.48.74.74,0,0,0-.12-.69Zm-17.84-8.33.5-1.2.19,1.29Z"/><polygon class="cls-2" points="198.78 250.13 198.78 250.13 198.77 250.13 198.78 250.13"/><path class="cls-2" d="M422.8,345.78h0Z"/><polygon class="cls-2" points="197.04 377.26 197.04 377.26 197.04 377.26 197.04 377.26"/><path class="cls-2" d="M664.16,91a1.44,1.44,0,0,0-1.13-.48,5,5,0,0,0-2.36.85c-2.66,1.53-6.68,5-11.19,9.23C643.6,106.11,637,111.62,628.77,118c-7.69,6-15.55,11.83-23.49,17.54-1.46,1-2.92,2.15-4.38,3.24a240.49,240.49,0,0,0,31.72-41.89c15.43-26,25.13-51.64,26.31-74.73q0-.6,0-1.11a7.42,7.42,0,0,0-.27-2.26,1.8,1.8,0,0,0-.47-.78,1.3,1.3,0,0,0-.9-.38,2.18,2.18,0,0,0-1.35.6,14.43,14.43,0,0,0-2.38,2.9c-2.72,4-6.67,11.59-11.82,21.92a210,210,0,0,1-19.92,31.57,239.43,239.43,0,0,1-42,44,152.47,152.47,0,0,0,10.92-19.8h0c10.94-23.32,21.81-49.91,25.48-84a98.09,98.09,0,0,0,.68-9.93,14.55,14.55,0,0,0-.29-3.43,2.85,2.85,0,0,0-.44-1,1.28,1.28,0,0,0-1-.51A1.77,1.77,0,0,0,614,.64a11.07,11.07,0,0,0-1.6,2.44c-1.59,3.05-3.24,7.62-3.76,8.88-5.5,13.6-22.34,51.41-41.62,81.18A177.74,177.74,0,0,1,550.49,115c-7.1,6.44-16.67,15.88-25.87,24.7s-18.08,17-23.61,20.91c-35.64,25-55.49,43-94.55,63.13-1.8.93-5.92,2.8-8.93,4.13a4.66,4.66,0,0,0-1.17-2V204.67a3.52,3.52,0,0,0-.29-1.32h.18a5.58,5.58,0,0,0,2.11-.39,4.3,4.3,0,0,0,2.22-2,3.42,3.42,0,0,0,.36-1.59,5.32,5.32,0,0,0-.19-1.38l24.73-46.09a.74.74,0,0,0,0-.72.77.77,0,0,0-.63-.37h0a12.4,12.4,0,0,0-5.07,1.37c-2.66,1.31-5.85,3.95-8.09,9-4.33,9.74-8.49,15.82-12.25,19.42s-7.07,4.77-9.84,4.77a11.76,11.76,0,0,1-8.07-3.6,8.3,8.3,0,0,0,.9-3.73,9.86,9.86,0,0,0-.67-3.45l0-.06-.69-1.45,13.41-9.61a.73.73,0,0,0,.3-.48.74.74,0,0,0-.14-.56l-9.9-13.2a.78.78,0,0,0-.48-.29l-20-2.95a.71.71,0,0,0-.54.14l-9.94,7.13,8-8a.73.73,0,0,0,.21-.52.75.75,0,0,0-.22-.53l-15.28-14.75a.69.69,0,0,0-.52-.21l-26.36.36a.73.73,0,0,0-.51.22l-14.41,14.39a.73.73,0,0,0-.21.52.72.72,0,0,0,.21.52l8,8L302.1,146a.75.75,0,0,0-.55-.12l-19.85,3.5a.69.69,0,0,0-.47.29L272,162.35a.74.74,0,0,0,.16,1L285.45,173l-.74,1.55,0,.06a9.76,9.76,0,0,0-.68,3.47,8.4,8.4,0,0,0,.89,3.71,11.74,11.74,0,0,1-8.07,3.6c-2.77,0-6.08-1.15-9.84-4.77s-7.92-9.68-12.25-19.42c-2.25-5.06-5.42-7.7-8.1-9a12.34,12.34,0,0,0-5.06-1.37h0a.74.74,0,0,0-.63,1.09L265.65,198a6.23,6.23,0,0,0-.18,1.36,3.45,3.45,0,0,0,.37,1.6h0a4.25,4.25,0,0,0,2.21,2,5.56,5.56,0,0,0,2.09.39h.19a3.52,3.52,0,0,0-.29,1.32v21.12a4.25,4.25,0,0,0-1.26,2.82c-2.85-1.26-8.52-3.78-10.72-4.92-39.07-20.1-58.89-38.17-94.55-63.13-5.52-3.86-14.38-12.08-23.59-20.91S121.15,121.38,114,115A177.68,177.68,0,0,1,97.52,93.14C78.25,63.37,61.42,25.56,55.9,12c-.39-1-1.45-3.85-2.62-6.51a30.41,30.41,0,0,0-1.82-3.58A6.66,6.66,0,0,0,50.55.64,1.77,1.77,0,0,0,49.31,0a1.25,1.25,0,0,0-1,.51,3.77,3.77,0,0,0-.57,1.64,20.13,20.13,0,0,0-.16,2.77,99.28,99.28,0,0,0,.69,10c3.65,34.09,14.53,60.68,25.47,84h0a154.9,154.9,0,0,0,10.92,19.8,240.09,240.09,0,0,1-42-44A212.37,212.37,0,0,1,22.76,43.07c-3.92-7.87-7.16-14.13-9.67-18.44a49.09,49.09,0,0,0-3.25-5,9.29,9.29,0,0,0-1.28-1.38,2.23,2.23,0,0,0-1.35-.6A1.34,1.34,0,0,0,6.3,18a2.39,2.39,0,0,0-.59,1.25,9.15,9.15,0,0,0-.14,1.79q0,.51,0,1.11c1.19,23.09,10.88,48.7,26.3,74.73a240.12,240.12,0,0,0,31.73,41.9c-1.46-1.1-2.92-2.2-4.38-3.25-8-5.71-15.81-11.54-23.5-17.54-8.2-6.4-14.82-11.91-20.7-17.47-3-2.83-5.8-5.31-8.11-7.1a27.77,27.77,0,0,0-3.08-2.13,5,5,0,0,0-2.36-.85A1.42,1.42,0,0,0,.38,91,1.74,1.74,0,0,0,0,92.13a11.79,11.79,0,0,0,1.42,4.4l0,.06a323.82,323.82,0,0,0,33.46,46.66A214.87,214.87,0,0,0,55.09,164c1.29,1.14,2.59,2.25,3.93,3.35,1.11,1.27,2.36,2.61,3.81,4A222.11,222.11,0,0,1,34.6,159.22a100.13,100.13,0,0,1-18.46-12.05c-1-.81-3.55-3.18-6.17-5.33-1.32-1.08-2.64-2.11-3.81-2.88a12.74,12.74,0,0,0-1.63-1,3.5,3.5,0,0,0-1.44-.41,1.31,1.31,0,0,0-1,.41,1.47,1.47,0,0,0-.35,1,7.22,7.22,0,0,0,.81,2.71l0,.07c13.51,22.73,31.89,42.07,52.64,55.61-9.44-2.54-19.41-5.88-24.65-7.86a78.36,78.36,0,0,1-9-4.31,53.27,53.27,0,0,0-6.73-3.34,4.06,4.06,0,0,0-1.29-.24,1.76,1.76,0,0,0-1.21.41,1.59,1.59,0,0,0-.52,1.26,7.6,7.6,0,0,0,1.37,3.5,49.76,49.76,0,0,0,4.41,5.94,78.4,78.4,0,0,0,6.76,6.66c2.64,2.39,5.59,4.91,8.26,7.11a4.93,4.93,0,0,0-.73.65,5.62,5.62,0,0,0-2,4.13,4.89,4.89,0,0,0,0,.54h0c.25,2.15,1.82,4.14,4.51,6.13a50,50,0,0,0,9.26,5.06,64.7,64.7,0,0,0-9.37,2,25.85,25.85,0,0,0-5.45,2.25,8.74,8.74,0,0,0-3.52,3.36,5.42,5.42,0,0,0-.58,2.41,6.39,6.39,0,0,0,1.1,3.46h0c2.48,3.8,7.51,5.9,11.1,7.46a84.4,84.4,0,0,0,10.43,3.65,31.51,31.51,0,0,0-9.27,4.49,6.18,6.18,0,0,0-2.85,5l0,.47h0a7.79,7.79,0,0,0,2.38,4.67,16,16,0,0,0,4.22,3.08c8,4.07,17.72,5.58,27,6.51a89.69,89.69,0,0,0-12.25,4.86,39.71,39.71,0,0,0-7,4.41,16.93,16.93,0,0,0-3.23,3.33,7.51,7.51,0,0,0-1.51,4v.22a5.67,5.67,0,0,0,1.07,3.3,9.64,9.64,0,0,0,3,2.66c5.95,3.54,13.18,3.61,19.44,3.71,3,0,5.15.05,7.35.05,4.14,0,8-.06,11.77-.21a38.38,38.38,0,0,0-4.34,2.95,16.36,16.36,0,0,0-3.28,3.43,7.69,7.69,0,0,0-1.44,4.29,6.83,6.83,0,0,0,.43,2.34,8.24,8.24,0,0,0,3.68,4.06,17,17,0,0,0,5.07,2,37.19,37.19,0,0,0,7.41.62c2.18,0,4.45-.11,6.66-.26l1.74-.11c4.38-.28,8.35-.59,12.07-1-4.9,3.28-9.7,7.19-12.31,12.2h0a8.49,8.49,0,0,0-1,3.88,5.89,5.89,0,0,0,.85,3.08,8.9,8.9,0,0,0,5,3.51,20.71,20.71,0,0,0,6.42,1h0c8.06-.14,15.78-2.1,23.22-4l2.24-.57h0a82.68,82.68,0,0,0,10.75-4.38c3.94-1.81,8.56-4,13.33-6.37-1.47,1.61-2.59,2.89-2.59,2.89v0a30.41,30.41,0,0,0-3.22,4.67,10.93,10.93,0,0,0-1.53,5,4.89,4.89,0,0,0,.33,1.82,4.67,4.67,0,0,0,2.3,2.5,9.07,9.07,0,0,0,4.11.8c.57,0,1.17,0,1.81-.09h0c7.38-.3,14.88-2.85,21.9-5.71a85.83,85.83,0,0,0-7.41,8.56c-2.71,3.7-4.57,7.23-4.59,10.37v.06a6,6,0,0,0,2,4.47h0a7.19,7.19,0,0,0,4.9,1.55c3.73,0,8.08-1.58,11-2.83h0l1.17-.49h0a106.24,106.24,0,0,0,11.75-5.84,109.64,109.64,0,0,0-6,10.46c-2.05,4.2-3.41,8.05-3.42,11.13a6.85,6.85,0,0,0,.63,3.08,5,5,0,0,0,1.7,1.95,6.64,6.64,0,0,0,3.51,1h.06c6.5,0,11.8-4.05,16.24-7.71h0c2.11-1.73,4.2-3.52,6.26-5.32-2.49,6.15-4.54,12.45-4.55,17.33a10.38,10.38,0,0,0,1,4.78h0a6.11,6.11,0,0,0,4.45,3.32h.08l1.16.1H227a10.69,10.69,0,0,0,6.18-2.39,40.15,40.15,0,0,0,4.87-4.43h0l1-1.05a103.28,103.28,0,0,0,7.68-8.59,62,62,0,0,0-1.31,11.35c0,3.62.58,6.76,2.28,8.92A6.42,6.42,0,0,0,253,399h0a9.42,9.42,0,0,0,6.17-3,33.68,33.68,0,0,0,4.13-5.2l.77-1.12h0a93.06,93.06,0,0,0,5.84-9.59v.17A40.83,40.83,0,0,0,271,390.77c.88,3.23,2.47,6.06,5.33,7.47a5.78,5.78,0,0,0,3.32,1.11c2.14,0,4.12-1.24,5.94-3.47a35.36,35.36,0,0,0,4.81-8.88l41,41,1.82,0,40.92-40.92a35.37,35.37,0,0,0,4.81,8.84c1.81,2.22,3.78,3.45,5.93,3.46a5.79,5.79,0,0,0,3.33-1.12c2.85-1.42,4.44-4.23,5.32-7.45a40.75,40.75,0,0,0,1.09-10.47v-.19a91.23,91.23,0,0,0,5.83,9.59l.77,1.12a33,33,0,0,0,4.12,5.2,9.46,9.46,0,0,0,6.18,3h0a6.39,6.39,0,0,0,5.26-2.47h0c1.7-2.16,2.27-5.29,2.28-8.92a62.91,62.91,0,0,0-1.31-11.35,101.37,101.37,0,0,0,7.67,8.59l1,1.05h0a41,41,0,0,0,4.88,4.43,10.66,10.66,0,0,0,6.18,2.39h.07l1.16-.1h.08a6.09,6.09,0,0,0,4.45-3.32h0a10.44,10.44,0,0,0,1-4.77c0-4.88-2.07-11.18-4.56-17.34,2.06,1.8,4.14,3.59,6.26,5.32h0c4.43,3.66,9.75,7.7,16.24,7.71h0a6.61,6.61,0,0,0,3.51-1,5,5,0,0,0,1.71-1.95,6.85,6.85,0,0,0,.64-3.08c0-3.08-1.38-6.93-3.43-11.13a107.53,107.53,0,0,0-6-10.46,105.37,105.37,0,0,0,11.75,5.84h0l1.17.49h0c2.9,1.25,7.24,2.82,11,2.83a7.21,7.21,0,0,0,4.9-1.55,6,6,0,0,0,2-4.47h0v-.06c0-3.15-1.88-6.67-4.6-10.38a85.43,85.43,0,0,0-7.4-8.55c7,2.86,14.52,5.41,21.89,5.71h0c.64.06,1.25.09,1.82.09a9.07,9.07,0,0,0,4.11-.8,4.71,4.71,0,0,0,2.3-2.5h0a5.08,5.08,0,0,0,.32-1.81,10.91,10.91,0,0,0-1.52-5,31.42,31.42,0,0,0-3.22-4.67v0s-1.13-1.28-2.6-2.9c4.77,2.36,9.4,4.57,13.34,6.38a83.3,83.3,0,0,0,10.74,4.38l2.23.57c7.45,1.87,15.18,3.83,23.23,4h0a20.81,20.81,0,0,0,6.43-1,8.9,8.9,0,0,0,5-3.5h0a6,6,0,0,0,.84-3.08,8.49,8.49,0,0,0-1-3.88c-2.61-5-7.42-8.92-12.3-12.2,3.71.37,7.67.68,12.05,1l1.74.11c2.22.15,4.49.26,6.67.26a38,38,0,0,0,7.41-.62,17,17,0,0,0,5.08-2,8.31,8.31,0,0,0,3.67-4.06,6.81,6.81,0,0,0,.42-2.34,7.68,7.68,0,0,0-1.43-4.29,19.36,19.36,0,0,0-5.2-4.84c-.83-.57-1.65-1.08-2.42-1.54,3.73.15,7.63.21,11.76.21,2.22,0,4.4,0,7.36-.05,6.25-.1,13.49-.17,19.44-3.71,2.59-1.54,4.09-3.59,4.08-6v-.18h0a7.56,7.56,0,0,0-1.51-4c-2.61-3.64-7.67-6.45-10.23-7.74a88.68,88.68,0,0,0-12.25-4.86c9.25-.93,18.92-2.44,27-6.51a15.91,15.91,0,0,0,4.23-3.08,7.88,7.88,0,0,0,2.39-4.66h0v-.41a6.19,6.19,0,0,0-2.86-5.06,31.44,31.44,0,0,0-9.28-4.49A84.54,84.54,0,0,0,627.57,244c3.58-1.56,8.61-3.66,11.1-7.46h0a6.45,6.45,0,0,0,1.09-3.45,5.49,5.49,0,0,0-.57-2.41h0a8.74,8.74,0,0,0-3.52-3.36c-3.93-2.27-9.9-3.52-14.83-4.22a49.83,49.83,0,0,0,9.27-5.06c2.69-2,4.26-4,4.51-6.13h0a4.89,4.89,0,0,0,0-.54,5.64,5.64,0,0,0-2-4.14,5.55,5.55,0,0,0-.72-.64c2.66-2.2,5.61-4.72,8.26-7.11a79.5,79.5,0,0,0,6.75-6.66,51.76,51.76,0,0,0,4.42-5.94,7.67,7.67,0,0,0,1.37-3.51,1.65,1.65,0,0,0-.52-1.25,1.75,1.75,0,0,0-1.21-.41,4.06,4.06,0,0,0-1.28.24,52.6,52.6,0,0,0-6.74,3.34,78.5,78.5,0,0,1-9,4.31c-5.23,2-15.2,5.32-24.64,7.86,20.75-13.54,39.13-32.88,52.64-55.61l0-.07a7.27,7.27,0,0,0,.81-2.71,1.45,1.45,0,0,0-.35-1,1.31,1.31,0,0,0-1-.41A3.5,3.5,0,0,0,660,138a37.92,37.92,0,0,0-6.42,4.64c-2.26,1.91-4.35,3.81-5.19,4.52a100.13,100.13,0,0,1-18.46,12.05,222.11,222.11,0,0,1-28.23,12.16c1.45-1.43,2.7-2.77,3.82-4,1.32-1.1,2.64-2.21,3.91-3.35a216.08,216.08,0,0,0,20.19-20.74,325.37,325.37,0,0,0,33.46-46.66l0-.06a11.93,11.93,0,0,0,1.41-4.39A1.79,1.79,0,0,0,664.16,91ZM650.81,38c-4.55,18.59-14,40.73-25.82,60-.11.16-1.61,2.12-4,5.24-5.9,7.63-17.16,22-26.16,32.34a12.91,12.91,0,0,0,1.6-5.54,5.6,5.6,0,0,0-.81-3h0a5.08,5.08,0,0,0-2.78-2.19,21.68,21.68,0,0,0-4.58-.91h0a10.73,10.73,0,0,0-1.92-.16,22.11,22.11,0,0,0-4.38.53C609.52,103,632.07,77.65,650.81,38Zm-66.06,91.51a34,34,0,0,1,4-.54,1.79,1.79,0,0,1,.79.13,1,1,0,0,1,.43.41.71.71,0,0,1,0,.31,2.56,2.56,0,0,1-.15.8v0c-2.28,7.39-9.78,14.24-15.88,19.76h0l-2.09,1.91a335.71,335.71,0,0,1-44.71,34.17c-8.66,5.63-17.73,11.17-26.94,16.45h0l-1.25.79h0a9.71,9.71,0,0,1-1.61.91,4.08,4.08,0,0,1-1.41.39h0l-.36.08-1.29.71c-4.35.2-10.12,1.33-17.39,3.45l4.32-2.44.07,0c31.68-22.75,69.38-61.14,72.18-63.92v0c.24-.24.53-.49.85-.78h0a37.71,37.71,0,0,1,7.54-5.14h0l0,0c.66-.36,1.35-.7,2.06-1l.33-.16c.62-.29,1.24-.57,1.89-.85l.43-.18c.66-.28,1.3-.55,2-.79h0l.4-.15c.77-.29,1.54-.57,2.32-.84A82.25,82.25,0,0,1,584.75,129.51ZM511.28,243.77a2.59,2.59,0,0,1-.39,1.26c-.75,1.33-2.64,2.9-4.95,4.35a66.57,66.57,0,0,1-7.46,4h0c-.78.37-1.52.69-2.21,1h0c-2.38,1-4.17,1.73-4.49,1.85h0a13,13,0,0,1-3.29.56c-1.49.11-3.28.15-5.1.15-4,0-8.17-.21-9.9-.3-1.56-.09-3.13-.13-4.72-.13-2.62,0-5.27.14-7.92.34l.28-.16h0a13.49,13.49,0,0,0,3.14-2.35,5,5,0,0,0,1.53-3.45,5.31,5.31,0,0,0-.05-.68h0a4.8,4.8,0,0,0-1.81-2.88c-2.74-2.26-8.15-3.77-15.75-4.41,1.09-.9,2.11-1.76,3-2.59a28.88,28.88,0,0,1,3.52-.82,199.79,199.79,0,0,1,28.79-2.38c3.36,0,6.31.13,8.89.34,2,.16,3.72.36,5.26.59h.12l.88.15h0l.36,0,.74.14.5.1h0l.53.1.06,0q.44.08.84.18l.09,0h0a33,33,0,0,1,4.79,1.43c.52.2.91.38,1.2.51l.57.28a7.84,7.84,0,0,1,2,1.16,2.26,2.26,0,0,1,.88,1.37v0Zm-7.9,24.52c.57.18,1.12.38,1.66.57h0l.18.06c.49.17,1,.35,1.44.53h0l.23.08c1,.42,2,.84,2.89,1.28h0l.11.05a21.41,21.41,0,0,1,2.38,1.39,6.8,6.8,0,0,1,2.39,2.51,1.54,1.54,0,0,1,.15.67,2.13,2.13,0,0,1-.53,1.29c-1.11,1.44-4.19,3-8,4.12A62.06,62.06,0,0,1,495.09,283a49,49,0,0,1-5,.27,21.89,21.89,0,0,1-6.15-.71h0c-5.64-1.8-12.64-4.37-19.84-6.14a13.71,13.71,0,0,0,3.42-2,4.62,4.62,0,0,0,1.89-3.51,4.71,4.71,0,0,0-1-2.73c-1.82-2.48-5.68-4.5-9.93-5.77-1-.29-1.93-.54-2.9-.79,1.73-.23,3.47-.43,5.24-.59a14.17,14.17,0,0,1,1.6-.08c3.62,0,7.36,1,11.15,1.55h0l4.57.57a165.4,165.4,0,0,1,21.37,4.05h0c.55.14,1.1.29,1.62.45h0l.47.13,1.42.43.29.1Zm-40.17,28.65-2.19-2.2a22.1,22.1,0,0,0,5.06-2.14,3.94,3.94,0,0,0,2.05-3.37,4.87,4.87,0,0,0-1.12-3c-1.56-2-4.73-4.07-10.41-6,1.4.24,2.8.51,4.19.84a137,137,0,0,1,15.9,5.26c11.17,4.18,19.29,7.93,24.91,11.16s8.77,5.94,9.95,7.89h0a3.82,3.82,0,0,1,.58,1.36v.08l0,.29v.22h0a1.66,1.66,0,0,1-.7,1.14h0a5,5,0,0,1-.51.32h-.06c-.22.1-.44.19-.7.28a11.87,11.87,0,0,1-3.59.46h-.11c-23.27,0-36.09-6.47-43.75-11.18l.5-.51A.72.72,0,0,0,463.21,296.94Zm-5.41-5.41-8.73-8.73a55.63,55.63,0,0,1,11,3.74,10.86,10.86,0,0,1,2.59,1.7c.55.51.7.91.69,1.11a.67.67,0,0,1-.23.49,4.52,4.52,0,0,1-1.86,1A19.84,19.84,0,0,1,457.8,291.53Zm.27,16.5a4.84,4.84,0,0,1,.92,2.29.59.59,0,0,1-.19.51h0a1.66,1.66,0,0,1-1.15.31,17.46,17.46,0,0,1-5.87-1.72l4.12-4.12A19.61,19.61,0,0,1,458.07,308ZM426.5,250.66A127.18,127.18,0,0,1,441.14,248c3.29-.33,6.12-.48,8.5-.48a25.41,25.41,0,0,1,7.84.92,4.42,4.42,0,0,1,1.65.92,1.1,1.1,0,0,1,.4.85,2.64,2.64,0,0,1-.85,1.65c-1.84,2.07-6.75,4.64-13.71,6.57a121.48,121.48,0,0,1-17.38,2.88l-7.52-7.51C421.62,253.06,423.84,252,426.5,250.66Zm-11-1.41L412.2,246l.43-.26,1.24-.69,12.24-6.33c4-1.92,8.32-3.87,12.32-5.33s7.63-2.44,10.06-2.43a4.5,4.5,0,0,1,2.28.46,1.65,1.65,0,0,1,.84,1.3l0,.35c0,1.15-.84,2.85-3.56,4.86-6.14,2.34-14.77,5.81-22.53,9Q421,248.07,415.48,249.25Zm30.67,13.93h.11a42.33,42.33,0,0,1,11.51,2.52,22.34,22.34,0,0,1,4.77,2.32,6.38,6.38,0,0,1,1.32,1.18,1.51,1.51,0,0,1,.39.91v.08a5.66,5.66,0,0,1-2.57,2.7,19.55,19.55,0,0,1-5.57,2c-1-.14-2.06-.27-3.07-.35-1.41-.11-2.95-.15-4.57-.15-2.41,0-5,.1-7.56.26l-8.38-8.37C436.46,265.24,441.09,264.14,446.15,263.18Zm41.53-36.32h0c-.45.33-.91.64-1.36.94l0,0,0,0c-.46.32-.94.62-1.4.9h0a22.8,22.8,0,0,1-3.77,1.92,34.23,34.23,0,0,1-4.28.91c-6.07,1-16.19,2.33-21,3.57a7.85,7.85,0,0,0,1.66-4.25,3.46,3.46,0,0,0-.66-2.08,5.16,5.16,0,0,0-2.82-1.78,14.47,14.47,0,0,0-4.06-.5l-.41,0,13-6.73c9.89-4.48,18.24-7.22,24.46-8.37,1-.19,2-.34,2.91-.43h0c.45-.05.87-.1,1.28-.12h.06c.41,0,.81-.05,1.17-.05h1.16a9.12,9.12,0,0,1,.95.06h.1c.28,0,.55.07.82.12h0a5.35,5.35,0,0,1,.76.18h0a4.05,4.05,0,0,1,1.93,1,2.19,2.19,0,0,1,.58,1.57,5.66,5.66,0,0,1-.64,2.37h0c-1.06,2.27-4.05,5.5-7.41,8.29h0c-.45.39-.93.77-1.41,1.14l-.21.16-1.26.95ZM599.58,45.33c3.78-8.84,6.86-16.54,9.11-22,1.13-2.74,2-4.93,2.75-6.41l.14-.3c0,.21-.05.43-.08.67C610,28.36,604.62,48.09,597.74,67.4s-15.25,38.24-22.58,47.71c-.38.49-.74,1-1.11,1.41.83-1.36,1.59-2.71,2.22-4a15.08,15.08,0,0,0,1.86-6,4.44,4.44,0,0,0,0-.63h0a5.78,5.78,0,0,0-1.55-3.54,4.69,4.69,0,0,0-3.37-1.23,10.11,10.11,0,0,0-2.73.44C582.28,83.74,592.26,62.43,599.58,45.33ZM450.43,204.19c39.32-26.31,68.31-48.07,92.18-73.57.74-.79,1.49-1.58,2.23-2.38h0l.24-.27.13-.13.07-.06,0,0,.21-.22.13-.12,0,0,.25-.27h0l.16-.16.27-.27h0l.19-.2.36-.36.18-.18h0l.37-.38.22-.23h0l.42-.43h0l.22-.23.51-.51h0l.37-.39c.2-.18.37-.36.53-.51h0l.31-.32.46-.46.37-.37.42-.42h0l.45-.44h0l.38-.39.45-.44h0l.4-.4.46-.44h0l.42-.42.44-.44.47-.45h0l.44-.43h0l.43-.42h0l.48-.46.39-.38.52-.47h0l.32-.31h0c.37-.36.75-.71,1.14-1.07l.28-.26h0l.51-.47.36-.33.49-.43h0l.38-.34.47-.42h0l.35-.32.46-.41h0l.34-.29h0l.44-.38.34-.28h0l.4-.34.32-.25h0l.39-.32.28-.22.4-.31.22-.17.38-.26h0a9.24,9.24,0,0,1,1.44-.9,11.06,11.06,0,0,1,4-1.18,1.34,1.34,0,0,1,1,.28,1.42,1.42,0,0,1,.33,1.09,11,11,0,0,1-1,3.75c-.53,1.34-1.19,2.78-1.79,4a24.74,24.74,0,0,1-1.35,2.48h0c-12.14,17-26,28.12-43.33,43.9l0,0c-23.56,23.51-48.74,40.87-78.86,59.18a387.1,387.1,0,0,0-37.19,20.87l-8.22-8.21C408.77,229.12,440.71,210.71,450.43,204.19Zm-85.61-54.53,17.7,2.59,7.14,10-19.78,14.16-14.19-19.8ZM378.45,175a11.32,11.32,0,0,1-.28,1.49,3,3,0,0,1-.41.94c-.13.16-.18.17-.24.18a2.11,2.11,0,0,1-.24-.75,6.82,6.82,0,0,1-.09-1Zm-15.19-1.27a6.4,6.4,0,0,1-.48.89l-.25.28h0l-.17-.08a1.2,1.2,0,0,1-.33-.62,3.9,3.9,0,0,1-.13-1,4.08,4.08,0,0,1,.05-.67h0c0-.1.07-.27.12-.45Zm-2.89-4-1,1.19h0a8.93,8.93,0,0,0-2.23,5.49,18.9,18.9,0,0,1-6.82,1.13,32.13,32.13,0,0,1-4.55-.34l-1.38-.23-.37-.08-.05,0a14.09,14.09,0,0,1-1.7-1c-2.44-1.82-3.45-5.12-3.81-7.19l12.3-12.29,0,0Zm-50.7-24.87,11.07-11.51,24-.36,11.9,11.9-23.47,23.47Zm6.15,11.73,12.1,12.1c-.38,2.07-1.37,5.33-3.81,7.14a13.73,13.73,0,0,1-1.68,1l-.07,0a32.16,32.16,0,0,1-6.29.65,19,19,0,0,1-6.83-1.13,9,9,0,0,0-2.21-5.48h0l-.86-1Zm-38.91,5.56,6.49-9.43,17.6-3.12,9.91,7.21-9.78,13.45a.74.74,0,0,0-.35.26l-4.22,5.92Zm27.6,11.1a3.25,3.25,0,0,1-.22,1.3l-.22.33-.18.08-.07-.06a3.76,3.76,0,0,1-.62-1l1.2-1.64c0,.09,0,.18.05.24h0A4.39,4.39,0,0,1,304.51,173.17Zm-15.3,2.58a5.76,5.76,0,0,1-.17,1.45,1.33,1.33,0,0,1-.16.38c-.06,0-.11,0-.24-.19a4.44,4.44,0,0,1-.58-1.72c-.05-.27-.08-.55-.11-.84Zm-20.3,20.36-8.66-14.25-9.15-17.47a14.57,14.57,0,0,1,2.82,2.74,84.08,84.08,0,0,1,5.67,9.37c5.41,9.72,11.86,12,14.63,12.22h0c.64,0,1.6.15,2.74.15a15,15,0,0,0,11.81-5.57v0l.67-.8a.74.74,0,0,0-.12-1l-.06-.05a7.51,7.51,0,0,1-.6-.59,2.92,2.92,0,0,0,1.31.42,1.7,1.7,0,0,0,1.27-.56A3.22,3.22,0,0,0,292,179a7.34,7.34,0,0,0,.12-1l4.67,3.35a.6.6,0,0,0,.29.08h.07a.49.49,0,0,0,.21,0s0,0,0,0a.74.74,0,0,0,.51-.29l3.53-4.87a5.75,5.75,0,0,0,.63,1.17,2,2,0,0,0,1.56.89,2.12,2.12,0,0,0,1.36-.57,4.35,4.35,0,0,0,.65-.71,2.93,2.93,0,0,1-.39.58.74.74,0,0,0-.16.61.73.73,0,0,0,.37.5l1,.54,0,0a22.89,22.89,0,0,0,10,2.29h.08a22.59,22.59,0,0,0,5.26-.62c.65-.17,1.17-.32,1.53-.45s.57-.21.66-.25h0a16.72,16.72,0,0,0,2.51-1.53l.05,0a13.4,13.4,0,0,0,2.93-3.39,15.08,15.08,0,0,0,1.26-3.06l1.17,1.12.79.74a.74.74,0,0,0,1,0l.77-.75,1.18-1.11a14.53,14.53,0,0,0,1.26,3.06,13.27,13.27,0,0,0,2.94,3.39l0,0a17.15,17.15,0,0,0,2.5,1.54h0l.22.09a20.68,20.68,0,0,0,7.24,1.23H350a22.81,22.81,0,0,0,10-2.29l0,0,1-.54a.7.7,0,0,0,.36-.5.72.72,0,0,0-.14-.6,3.18,3.18,0,0,1-.41-.62l.17.25a4,4,0,0,0,.77.7,1.94,1.94,0,0,0,1.08.36,2,2,0,0,0,1.56-.89,5.93,5.93,0,0,0,.68-1.29l3.57,5a.74.74,0,0,0,1,.17L374.3,178a6.56,6.56,0,0,0,.25,1.61,2.86,2.86,0,0,0,.6,1.07,1.74,1.74,0,0,0,1.27.55,3.09,3.09,0,0,0,1.34-.43c-.16.16-.32.34-.44.44l-.18.16-.06.05a.69.69,0,0,0-.28.5.67.67,0,0,0,.16.54l.65.81,0,0a15,15,0,0,0,11.81,5.57c1.14,0,2.1-.11,2.74-.15,2.77-.19,9.21-2.5,14.64-12.22a82.54,82.54,0,0,1,5.67-9.37,14,14,0,0,1,2.81-2.74l-9.15,17.48-8.67,14.23a21.93,21.93,0,0,0-6.36-3.16,83.86,83.86,0,0,0-12.31-3h0c-12.4-2-28.55-3.08-45.58-3.14h0c-17,.06-33.18,1.17-45.59,3.14h0C278.31,191.62,272.14,193.59,268.91,196.11Zm1.35,4.46a1.25,1.25,0,0,1,.34-.47,20.21,20.21,0,0,1,6.27-3.39,56.23,56.23,0,0,1,11.36-3c10.33-1.6,23.8-3,44.9-3.4.81,0,1.64,0,2.47,0,9.39,0,20,.86,28.34,1.72,4.14.42,7.71.85,10.24,1.18s3.93.52,4,.53a60.9,60.9,0,0,1,14.14,3.91,13.33,13.33,0,0,1,3.07,1.82c.63.54.78,1,.77,1.07v0h0a2,2,0,0,1-.46,1.08l-.27.27-.08.06h0s0,0,0,.05a6.78,6.78,0,0,0-.82-.78c-2-1.67-5.43-3-9.79-4.06-12.8-3.22-33.88-4.55-50.48-4.65l-.1,0h-1.75a.35.35,0,0,0-.11,0,309.13,309.13,0,0,0-39.87,2.62,80.51,80.51,0,0,0-15.66,3.55,17,17,0,0,0-4.74,2.53,6.11,6.11,0,0,0-.82.78s0,0,0-.05h0a2.3,2.3,0,0,1-.41-.38A2,2,0,0,1,270.26,200.57Zm7.21,2.32h0l1.69,18.57h0c0,.4.08.79.08,1.1a1.91,1.91,0,0,1-.07.55l-.06.08h0a2.05,2.05,0,0,1-.5.17l-.35.16-.21.19a.71.71,0,0,0-.23.6,31.58,31.58,0,0,0-3.91,1.47V204.67l.12-.31a4.65,4.65,0,0,1,1.57-1.19,17.53,17.53,0,0,1,1.93-.86,1.5,1.5,0,0,0,0,.35Zm74,16.41c-2.26-.1-4.5-.2-6.73-.27a.85.85,0,0,0,.24-.53.7.7,0,0,0-.28-.64l-.24-.18-.41-.15-.23,0-.14,0,0,0a7.33,7.33,0,0,1,.39-1.69h0l1.56-4.66,4.3.21,1.75,6.77v.06h0l-.18.19a.74.74,0,0,0-.2.51A.84.84,0,0,0,351.48,219.3Zm-5-10.7,1.62-5,1.22,5.14ZM347.81,197c-.09.2-.18.44-.31.79l-6.22,17.4a6.64,6.64,0,0,1-.74,1.59,1,1,0,0,1-.75.51h0l-.45,0h-.22l-.15,0-.13.07a.25.25,0,0,0-.09,0l-.22.16a.74.74,0,0,0-.31.59l.13.48a.79.79,0,0,0,.21.23c-1.7,0-3.37,0-5,0h0l-.79,0c-9.45,0-20.29.39-30.33,1.31,0,0,0-.08,0-.13l0-.17a.71.71,0,0,0-.4-.52l-.2-.11-.44-.07a4.11,4.11,0,0,1-.77.08,3.62,3.62,0,0,1-.55-.05l-.32-.18a5,5,0,0,1-.9-2l-4.73-16.91h0a3.19,3.19,0,0,0-.24-.68l-.26-.35a.92.92,0,0,0-.59-.22h-.19a.88.88,0,0,0-.45.23,1.24,1.24,0,0,0-.29.49L292,200l-3.23,17-9.35-14.75h0l-.33-.42-.06,0a92.91,92.91,0,0,1,15.77-3.26,289.17,289.17,0,0,1,37.92-2.2h0l.9-.05c5.11,0,9.91.11,14.42.29A1.76,1.76,0,0,0,347.81,197Zm-51.73,23.27-.08.15-.08.47c-1.89.23-3.72.47-5.49.74,0-.17.08-.36.12-.59h0l2.43-12.6,3,11.28h0A3.65,3.65,0,0,1,296.08,220.25ZM287.93,222c-1.42.25-2.78.51-4.1.78,0,0,0,0-.06,0l-.22-.11-.45-.08a3.1,3.1,0,0,1-.43,0h-.32l-.07-.14v0c-.09-.48-.18-1-.23-1.39l-1.11-10c1.22,2,2.69,4.4,2.92,4.75s3,4.73,3.92,6h0Zm-8.18,5.69c9.67-2.67,28.35-5,53.46-5.08a295.83,295.83,0,0,1,40.87,2.59,106.71,106.71,0,0,1,12.58,2.49,36.83,36.83,0,0,1,3.92,1.29H275.82A37.08,37.08,0,0,1,279.75,227.7Zm87.84-7.17c-3.3-.35-6.72-.64-10.18-.87l0,0a.92.92,0,0,0,.18-.54.75.75,0,0,0-.27-.58l-.23-.18-.43-.17a1.78,1.78,0,0,1-.66-.14l0,0a1.07,1.07,0,0,1-.51-.47,7.88,7.88,0,0,1-.92-2.31c-1.22-4.38-4.33-16.28-4.64-17.41h0a6.61,6.61,0,0,0-.31-1l-.14-.19a221.08,221.08,0,0,1,28,2.79,64.37,64.37,0,0,1,11.5,2.93,11.93,11.93,0,0,1,2.82,1.45,2.78,2.78,0,0,1,.6.58l.12.31v21.15C387.06,223.32,378,221.64,367.59,220.53ZM97.72,107.94a9.72,9.72,0,0,1,1.46.9l.35.26h0l.24.18.38.3.29.22h0l.4.32.32.26.4.34h0l.33.28.45.37.33.3.47.41h0l.36.32.46.42h0l.38.34h0l.48.43.37.33h0l.51.47.28.26h0c.38.36.77.71,1.13,1.07h0l.32.31h0l.51.47.38.37h0l.49.46h0l.43.4.43.42h0l.47.45.44.43h0l.42.42,0,0,.46.43.38.4h0l.45.45h0l.39.39h0l.44.44.4.41h0l.38.37.46.46.3.32,0,0c.14.14.31.32.52.5l.37.4h0l.51.52h0l.23.24.41.43h0l.22.23.38.38.16.18h0l.35.35.19.2,0,0,.26.27.16.16h0l.25.27,0,0,.12.12.21.22,0,0,.06,0,.12.12.27.3c.74.8,1.49,1.59,2.23,2.37h0c23.85,25.5,52.85,47.26,92.17,73.57,9.72,6.52,41.67,24.93,50.09,29.93L256,242.33a387.4,387.4,0,0,0-37.19-20.87c-30.11-18.31-55.3-35.67-78.86-59.18l0,0c-17.32-15.78-31.18-26.9-43.32-43.9a25.32,25.32,0,0,1-1.36-2.48c-.59-1.21-1.25-2.65-1.79-4a10.93,10.93,0,0,1-1-3.75c0-.66.16-.94.33-1.09a1.32,1.32,0,0,1,1-.28A11,11,0,0,1,97.72,107.94Zm109.05,183.6a15.51,15.51,0,0,1-4.37-1,3.23,3.23,0,0,1-1-.67.69.69,0,0,1-.23-.5c0-.2.14-.6.68-1.11a15.65,15.65,0,0,1,4.65-2.62,65.68,65.68,0,0,1,9.05-2.83Zm1.9,13.75,4.13,4.13a17.71,17.71,0,0,1-5.9,1.73,1.71,1.71,0,0,1-1.14-.3l0,0a.63.63,0,0,1-.2-.53,4.85,4.85,0,0,1,.93-2.29A19,19,0,0,1,208.67,305.29Zm-7.3-7.32.48.49c-7.66,4.71-20.48,11.2-43.77,11.2H158a11.89,11.89,0,0,1-3.6-.46c-.26-.09-.48-.18-.68-.27l-.08,0h0c-.18-.1-.35-.2-.51-.31h0a1.67,1.67,0,0,1-.7-1.15h0v-.22l0-.29v-.06a3.79,3.79,0,0,1,.58-1.37h0c1.18-2,4.32-4.68,9.94-7.89s13.75-7,24.92-11.16a137,137,0,0,1,15.9-5.26c1.4-.33,2.8-.6,4.2-.84a34,34,0,0,0-6.86,3,12.49,12.49,0,0,0-3.56,3,4.88,4.88,0,0,0-1.12,3,3.91,3.91,0,0,0,2,3.36,22,22,0,0,0,5.1,2.16l-2.18,2.18A.74.74,0,0,0,201.37,298ZM165.51,238.2l.35,0h0l.89-.15h.11c1.55-.23,3.3-.43,5.26-.59,2.59-.21,5.53-.34,8.9-.34a199.68,199.68,0,0,1,28.79,2.38,28.88,28.88,0,0,1,3.52.82c.87.82,1.88,1.68,3,2.58a45.65,45.65,0,0,0-11.77,2.27,13.56,13.56,0,0,0-4,2.15,4.77,4.77,0,0,0-1.81,2.88h0a4,4,0,0,0-.06.68,5,5,0,0,0,1.54,3.45,13.29,13.29,0,0,0,3.14,2.35h0l0,0h0l.28.15c-2.65-.19-5.31-.33-7.92-.33-1.59,0-3.17,0-4.72.13-1.73.09-5.9.3-9.9.3-1.82,0-3.61,0-5.11-.15a13.13,13.13,0,0,1-3.29-.56h0c-.32-.12-2.11-.82-4.49-1.85h0c-.7-.3-1.43-.62-2.2-1h0a67.45,67.45,0,0,1-7.46-4c-2.31-1.45-4.2-3-5-4.35a2.48,2.48,0,0,1-.4-1.24l0-.24v0a2.24,2.24,0,0,1,.89-1.37,7.59,7.59,0,0,1,2-1.16l.59-.28a28.88,28.88,0,0,1,6-1.94l.09,0h0c.27-.07.55-.13.83-.18l.05,0,.54-.1h0l.5-.1.75-.14Zm9.92-12.4-.21-.16h0c-.48-.37-.94-.75-1.41-1.14h0c-3.36-2.79-6.33-6-7.4-8.29a5.66,5.66,0,0,1-.64-2.36,2.21,2.21,0,0,1,.58-1.58,4.06,4.06,0,0,1,1.92-1h0a6.94,6.94,0,0,1,.78-.18h0q.39-.08.84-.12H170a9.71,9.71,0,0,1,1-.06h1.15c.36,0,.76,0,1.18.05h0c.41,0,.84.07,1.28.12h0c.92.09,1.9.24,2.92.43,6.21,1.15,14.57,3.89,24.46,8.37l13,6.73-.41,0a12.28,12.28,0,0,0-5.18.92,4.39,4.39,0,0,0-1.7,1.36,3.47,3.47,0,0,0-.67,2.08,7.87,7.87,0,0,0,1.67,4.25c-3.18-.82-8.64-1.66-13.76-2.44-2.63-.4-5.16-.78-7.22-1.13a34.23,34.23,0,0,1-4.28-.91,22.42,22.42,0,0,1-3.77-1.92c-.47-.28-.94-.59-1.42-.91h0l0,0c-.46-.31-.92-.62-1.36-.95h0l-.14-.1c-.43-.31-.84-.63-1.28-1Zm10.91,37.33h0l4.58-.57h0c3.8-.51,7.52-1.55,11.15-1.55a14.47,14.47,0,0,1,1.61.08c1.75.16,3.49.36,5.22.59-1,.24-1.93.5-2.9.79a25.85,25.85,0,0,0-7.48,3.45,10.21,10.21,0,0,0-2.43,2.32,4.22,4.22,0,0,0,.91,6.24,13.77,13.77,0,0,0,3.42,2c-7.21,1.78-14.2,4.35-19.85,6.15a21.72,21.72,0,0,1-6.14.71,49,49,0,0,1-5-.27,61.89,61.89,0,0,1-11.25-2.17,26.26,26.26,0,0,1-6.28-2.67,6.83,6.83,0,0,1-1.71-1.45,2.13,2.13,0,0,1-.53-1.29,1.61,1.61,0,0,1,.15-.68,6.82,6.82,0,0,1,2.38-2.5,19.53,19.53,0,0,1,2.4-1.39h0l.11-.06c.86-.44,1.84-.86,2.88-1.28l.22-.07h0l1.45-.54.16-.05h0c.54-.19,1.11-.39,1.67-.57l.28-.09h0l1.41-.43.48-.13h0c.53-.16,1.06-.31,1.62-.45h0A165.83,165.83,0,0,1,186.34,263.13Zm25.16,11.4c-1,.08-2.05.21-3.08.35a19.39,19.39,0,0,1-5.55-2,5.63,5.63,0,0,1-2.57-2.71v-.07a1.49,1.49,0,0,1,.39-.91,8.79,8.79,0,0,1,2.84-2.09,41.75,41.75,0,0,1,14.75-3.93h.11c5.07,1,9.7,2.06,13.66,3.09l-8.38,8.38c-2.58-.16-5.19-.27-7.62-.27C214.43,274.38,212.9,274.42,211.5,274.53Zm8.05-16.06a45.33,45.33,0,0,1-10.88-4.38,12.65,12.65,0,0,1-2.83-2.19,2.64,2.64,0,0,1-.85-1.65,1.17,1.17,0,0,1,.41-.85,6.21,6.21,0,0,1,3-1.3,31.78,31.78,0,0,1,6.46-.54c2.38,0,5.2.15,8.5.48A127.18,127.18,0,0,1,238,250.66c2.66,1.29,4.88,2.4,6.44,3.19l-7.51,7.5A120.78,120.78,0,0,1,219.55,258.47ZM239,246.87c-7.76-3.16-16.38-6.63-22.53-9-2.73-2-3.56-3.71-3.55-4.87l0-.34a1.65,1.65,0,0,1,.84-1.3,4.53,4.53,0,0,1,2.28-.46c2.43,0,6.08,1,10.07,2.43s8.35,3.41,12.32,5.33L250.67,245c.74.41,1.18.66,1.22.67l.44.28-3.27,3.27Q243.51,248.08,239,246.87ZM66.79,67.4C59.91,48.09,54.51,28.36,53,17.27c0-.24-.07-.47-.09-.68C54,18.76,55.6,22.72,57.7,27.88c7.15,17.53,20,49,36.37,73.68a10,10,0,0,0-2.72-.44A4.7,4.7,0,0,0,88,102.35a5.78,5.78,0,0,0-1.55,3.53,4.35,4.35,0,0,0,0,.63,15,15,0,0,0,1.86,6c.63,1.26,1.37,2.6,2.2,4l-1.08-1.38C82,105.64,73.66,86.71,66.79,67.4Zm26.44,65.49c.78.27,1.54.55,2.32.84l.39.15h0c.64.24,1.29.51,1.94.79h0l.45.18c.64.28,1.27.56,1.88.85h0l.33.16c.71.34,1.39.68,2,1l0,0h0a38.29,38.29,0,0,1,7.54,5.14c.31.28.6.54.85.79h0c2.8,2.78,40.5,41.17,72.18,63.92l.07,0,4.31,2.44c-7.25-2.12-13-3.25-17.38-3.45l-1.29-.71-.36-.08h0a4.13,4.13,0,0,1-1.42-.39,9.61,9.61,0,0,1-1.6-.91h0l-1.25-.79h0c-9.2-5.28-18.27-10.82-26.92-16.44a336.71,336.71,0,0,1-44.72-34.18h0l-2.09-1.91h0C84.44,144.89,77,138,74.67,130.65v0a2.64,2.64,0,0,1-.16-.8.68.68,0,0,1,.06-.32,1,1,0,0,1,.43-.4,1.77,1.77,0,0,1,.78-.13,34.45,34.45,0,0,1,4,.54A82.66,82.66,0,0,1,93.23,132.89ZM53.37,115.71c-3.85-4.83-7.31-9.28-9.82-12.52-2.39-3.09-3.89-5-4-5.23C27.69,78.74,18.27,56.6,13.72,38,32.46,77.66,55,103,82.58,124.25a22.3,22.3,0,0,0-4.39-.53,10.66,10.66,0,0,0-1.92.16h0a21.57,21.57,0,0,0-4.57.91A5.11,5.11,0,0,0,68.91,127a5.67,5.67,0,0,0-.8,3,13,13,0,0,0,1.58,5.55C64.52,129.57,58.59,122.28,53.37,115.71Zm-.9,35.61c-10.39-10.82-20-22.28-27.11-31.1-2.83-3.53-5.24-6.61-7.14-9.08,19.12,17,34.89,27.6,48.8,37.06l-.24-.07-.06,0a31.21,31.21,0,0,0-5.82-.63,12.4,12.4,0,0,0-5.44,1.05A6.64,6.64,0,0,0,52.47,151.32Zm8.84,8.85h0A26,26,0,0,1,59,156.9a5.29,5.29,0,0,1-.85-2.33l0-.26v0l.06-.07a1.8,1.8,0,0,1,.91-.35h0a15.11,15.11,0,0,1,2.8-.25c4.21,0,8.93,1.51,13.17,2.85l1.87.58c1.74.55,3.5,1.14,5.23,1.75s3.6,1.31,5.4,2q4.76,1.81,9.4,3.85a11.53,11.53,0,0,1,1.2.63c.33.2.67.43,1,.65a42.32,42.32,0,0,1,3.32,2.65h0c.75.64,1.48,1.27,2.22,1.87h0a390.25,390.25,0,0,0,33.71,23.49c5.83,3.69,16,9.74,21.9,13.23l1.11.62a4.93,4.93,0,0,0-1.66,3.84c0,2.44,1.27,5.35,3.58,8.84l.31.43a333,333,0,0,1-67.54-33.62c-2-1.28-4.08-2.64-6.22-4.05-1.72-1.14-3.47-2.34-5.24-3.56h0c-.24-.16-.47-.31-.67-.46l0,0c-1.68-1.17-3.36-2.35-5-3.58h0l-.33-.24h0c-1.68-1.23-3.38-2.51-5-3.82h0l-1.11-.86h0c-1.7-1.34-3.37-2.7-5-4.1-.24-.21-.47-.4-.67-.6h0A53.16,53.16,0,0,1,61.31,160.17ZM43.64,178.85a5,5,0,0,0-.83,2.12,165.3,165.3,0,0,1-22.53-23.71,189,189,0,0,0,20.91,11.19c5.62,2.64,10.7,4.83,13.86,6.16a23,23,0,0,0-6.73,1A8.91,8.91,0,0,0,43.64,178.85Zm5.22,5.07v0a1.86,1.86,0,0,1-.35-.9l0-.11v0a2.18,2.18,0,0,1,1.05-.69,16.16,16.16,0,0,1,4.83-.9c1.07-.07,2.14-.11,3.22-.11a82.46,82.46,0,0,1,15,1.65c2.48.47,4.95,1,7.43,1.54h0l1.1.22c1.85,1.46,4.11,3,6.38,4.58h0a308.51,308.51,0,0,0,32.27,18.91c9.81,5,20.4,9.76,33.31,15h0l19.72,7.73c.78.6,1.64,1.2,2.55,1.81a67.94,67.94,0,0,0-7.93.58l-7.77-1.67c-6.84-1.69-13.6-3.55-20.36-5.55-13.87-4.15-27.64-9-40.91-14.4-11.9-4.84-25.56-10.64-37.64-18.27l-2-1.23h0C55.19,189.86,50.67,187,48.86,183.92ZM24,192.46a109.61,109.61,0,0,0,12.7,4.88c4.85,1.53,9.23,2.68,14.27,4.32a59.38,59.38,0,0,0-13,2l-2.15-1.74C32.6,199.29,28,196,24,192.46Zm14.9,21.95a10.18,10.18,0,0,1-2.25-1.89,1.87,1.87,0,0,1-.5-1h0c0-.06,0-.19.22-.41a4.4,4.4,0,0,1,1-.77l.45-.23h0a22.3,22.3,0,0,1,4.1-1.63,41.61,41.61,0,0,1,7.3-1.39,89.24,89.24,0,0,1,9.68-.44l5.52.06h0c2.88,0,5.72.15,8.58.34h0a3.38,3.38,0,0,1,.84.13h0l.14,0c.28.07.59.17.91.27A28.71,28.71,0,0,1,78.05,209c.63.35,1.28.71,1.94,1q7.79,3.74,15.81,7c15.74,6.44,49.94,16.61,58.68,19.19-.56.23-1.17.49-1.81.81a14,14,0,0,0-4.54,3.36l-1-.09c-3-.37-5.94-.75-8.9-1.16-5.92-.8-11.82-1.65-17.75-2.55-14-2.08-26.16-4.37-37.3-7-3.3-.77-6.79-1.6-10.34-2.54h0c-3-.77-6-1.6-9-2.52l-.25-.09h0c-1.44-.44-2.86-.89-4.29-1.37h0L59,223c-1.49-.5-3-1-4.43-1.57h0l-1-.38h0l-.94-.35h0C45.37,218,41.23,216,38.91,214.41Zm-2.77,23a18.86,18.86,0,0,1-3.58-2.28,2.6,2.6,0,0,1-1-1.36h0v0a1.23,1.23,0,0,1,.45-.66,7.34,7.34,0,0,1,1.26-.86c4.26-2.36,10.17-3,15.43-3.55h0l2.41-.28h0a31.79,31.79,0,0,1,4-.32,9.09,9.09,0,0,1,2.79.36c3.29,1.11,6.6,2.13,9.94,3.09.68.19,1.37.39,2.11.58l.24.07h0l2,.53h.12c19.16,4.87,51.43,9.89,74.44,12.69a9.36,9.36,0,0,0,2.31,4.06,26.46,26.46,0,0,0,4.82,4q-7.09.21-14.25.22c-32.25,0-61.62-3.54-87.32-10.54A87.39,87.39,0,0,1,36.14,237.42ZM46.71,261.7h0A19.54,19.54,0,0,1,42.8,260c-.9-.55-1.34-1.07-1.41-1.38l0-.05,0-.11a1.91,1.91,0,0,1,.48-1c1.17-1.51,3.44-2.76,6-3.71a66.72,66.72,0,0,1,7.61-2.2l1.4-.34a11.43,11.43,0,0,1,2.71-.29,41.69,41.69,0,0,1,10.06,1.76h0c1.93.5,3.85,1,5.63,1.33h0c6.76,1.19,13.87,2.19,21.13,3,12.86,1.39,26.72,2.19,42.35,2.43h2.1c3,0,7,0,11.15,0,3.48,0,7,0,9.85.15,1.43.06,2.7.14,3.72.25a10.76,10.76,0,0,1,2.12.39l.4.18a74.85,74.85,0,0,0-16.9,6.43l-5.3.47-1.77.07h0c-11.08.86-22,1.31-32.39,1.31l-2.41,0C90.35,268.49,66.86,268.33,46.71,261.7Zm27.16,30.67a99.94,99.94,0,0,1-11.19-.57h0a48.3,48.3,0,0,1-8.94-1.55,6.66,6.66,0,0,1-2.31-1.09,8,8,0,0,1,3.64-4.23,38.93,38.93,0,0,1,6.17-3h0l1.95-.83h0a139.1,139.1,0,0,1,19.93-6.92h0a25.8,25.8,0,0,1,6.67-.69c2.39,0,5,.17,7.53.4h0c2.22.18,4.43.39,6.58.42h0q3.31.06,6.65.06c10.54,0,21.24-.45,32.86-1.39h.24a6.67,6.67,0,0,0-1.3,3.74,5.82,5.82,0,0,0,1.77,4,12.88,12.88,0,0,0,3.19,2.31,416.16,416.16,0,0,1-43.74,7.27A286.8,286.8,0,0,1,73.87,292.37Zm25.2,19a68.38,68.38,0,0,1-9.19-.58h0a11.64,11.64,0,0,1-3.27-.9c-.83-.38-1.25-.85-1.27-1h0v-.09a1.6,1.6,0,0,1,.38-.87,7.63,7.63,0,0,1,1.4-1.41,69.54,69.54,0,0,1,14-8.35c3.51-1.7,8-2.11,12.46-2.49h0c2-.16,3.94-.32,5.8-.61h0q9.63-1.45,19.17-3.42c6.9-1.41,13.73-3,20.53-4.73l0,0,.49-.12q4.34.77,9.92,1.25a74.61,74.61,0,0,0-14.72,8.39c-3.92,3-6.37,5.87-7.41,8.53l-5.11.63h-.06q-6.15,1.26-12.31,2.34C119.54,309.73,108.86,311.41,99.07,311.41Zm54.78,13.06a220.76,220.76,0,0,1-22.26,6.74,83.77,83.77,0,0,1-18.8,2.63l-1.19,0a9.22,9.22,0,0,1-2.26-.28,2.36,2.36,0,0,1-.53-.23l-.08-.08h0v-.08a2.41,2.41,0,0,1,.3-.95c.65-1.38,2.5-3.7,5.8-6.53a106.12,106.12,0,0,1,16.52-11.32,25.93,25.93,0,0,1,2.69-.62c2-.41,4.79-.88,7.18-1.29s4.31-.71,5-.85l2.19-.26c2,2.06,5.71,3.13,11,3.14,1.27,0,2.64-.06,4.1-.19l1.37-.11c4-.3,8.35-.62,12.81-1.07-2.31,1.55-4.46,2.85-8.32,5A124.82,124.82,0,0,1,153.85,324.47Zm27.58,8h0l-2.27.83h0c-4.8,1.74-9.69,3.5-14.42,3.52a5.54,5.54,0,0,1-1.29-.13l-.21-.09a3.7,3.7,0,0,1,.45-1.3c1-1.95,3.62-5.28,7.89-9.21,7.83-7.22,16.81-13.24,24.61-18.19h0c1.4-.9,5.25-3.16,9.5-5.64l.33.34a36.3,36.3,0,0,0-3.4,4.18,8.54,8.54,0,0,0-1.75,4.41,3.08,3.08,0,0,0,1.62,2.75,9.38,9.38,0,0,0,4.63.89h.75a24.61,24.61,0,0,0,4.56-.71c-2.32,2-4.37,3.68-5.52,4.71h0c-.78.7-1.56,1.45-2.32,2.19-1.92,1.89-3.87,3.75-6,4.66h0C192.92,328.13,187.25,330.45,181.43,332.5Zm4.1,23.05a12.59,12.59,0,0,1-2.65.43,1.56,1.56,0,0,1-.62-.08l-.15-.11,0-.3a5,5,0,0,1,.42-1.69,40.21,40.21,0,0,1,6.18-9.45,184.79,184.79,0,0,1,16.62-17.14c2.92-2.75,6-5.38,9.05-8a15.86,15.86,0,0,0-1.46,6,5.05,5.05,0,0,0,1.46,4h0a3.9,3.9,0,0,0,2.52.72,24.34,24.34,0,0,0,5.61-1c-1.51,2.28-2.57,3.88-2.62,4-.6.82-1.25,1.85-1.93,2.94v0c-1.2,2-2.69,4.32-3.86,5h0L211,342.82C203.13,347.84,194.27,353.45,185.53,355.55Zm31.15-30a9.27,9.27,0,0,1,.89-3.26,48.3,48.3,0,0,1,2.76-5.31l6.08,6.08a24.05,24.05,0,0,1-3.78,1.74c-.5.18-1.33.6-2.3,1a8,8,0,0,1-2.73.72,1,1,0,0,1-.69-.18C216.81,326.2,216.69,326,216.68,325.51Zm-4.09,44.74a38.19,38.19,0,0,1-5.52,3.71,8,8,0,0,1-3.44,1.13,1.19,1.19,0,0,1-1-.38,2.18,2.18,0,0,1-.36-1.41,16.24,16.24,0,0,1,1.53-5.65c3.07-7.24,10.81-19,23.5-33.75a5.52,5.52,0,0,0,1.2,3.55,5.18,5.18,0,0,0,4,1.43,14.79,14.79,0,0,0,2.1-.17h0a23,23,0,0,0,4.74-1.24c-.31.66-.63,1.32-.94,2h0c-2.57,5.54-5.49,10.94-9.22,15A149.15,149.15,0,0,1,212.59,370.25Zm18.9-37.59a8.92,8.92,0,0,1,1.07-3.49l4.54,4.54a12.08,12.08,0,0,1-3.45.65,2.69,2.69,0,0,1-1.67-.43A1.48,1.48,0,0,1,231.49,332.66Zm18.8,28.76c-8.25,11.63-13.74,18-17.33,21.51-3.08,3-4.77,3.75-5.47,3.89A2,2,0,0,1,227,386a4.9,4.9,0,0,1-.22-1.58,23.45,23.45,0,0,1,1.24-6.12h0l.44-1.41v0a131.44,131.44,0,0,1,5.79-15.67c2.6-6.17,4-10.24,7-16.15a1.39,1.39,0,0,0,.51.7,3.4,3.4,0,0,0,2,.53,14.48,14.48,0,0,0,4.82-1.12l7.64,7.63c-1.94,2.9-3.9,5.77-5.93,8.6Zm-6.17-18.6a1.52,1.52,0,0,1,.07-.39c.1-.35.24-.77.41-1.22l1.42,1.43a5.23,5.23,0,0,1-1.55.32.61.61,0,0,1-.34,0Zm20.56,33.58h0a102.33,102.33,0,0,1-8,13.39h0a18.57,18.57,0,0,1-2.31,2.7c-.59.54-1,.67-1.09.65l-.15-.1a2,2,0,0,1-.3-.76,21,21,0,0,1-.53-5,66,66,0,0,1,1.19-10.64h0c.29-1.86.44-3.05.61-4.27h0a37.32,37.32,0,0,1,2-9.46c1.38-1.88,2.81-3.89,4.23-5.94l9.28,9.28C268.07,369.68,266.42,373,264.68,376.4Zm18.13,11.48c-.39.85-1.18,2.4-2,3.79-.38.69-.77,1.35-1.09,1.86l-.41.58a3.09,3.09,0,0,1-1.08-1.34,18.6,18.6,0,0,1-1.34-5.93,70.34,70.34,0,0,1-.3-7.13c0-1.13,0-2.15,0-3h0c0-.66,0-1.25,0-1.77,0-.36,0-.7,0-1s0-.46,0-.7l8.63,8.63C284.52,383.92,283.72,385.93,282.81,387.88Zm104.49,1.27a14.16,14.16,0,0,1-1,3.63,3.05,3.05,0,0,1-1.08,1.33c-.14-.19-.31-.44-.5-.73a61.94,61.94,0,0,1-3-5.5c-.9-1.92-1.7-3.94-2.45-6l8.61-8.61c0,.22,0,.43,0,.65s0,.63,0,1,0,1.1,0,1.75h0c0,.85,0,1.88,0,3A61.11,61.11,0,0,1,387.3,389.15Zm-55,31L209.6,297.46l62.28-62.26H392.63L455,297.46Zm115.56-94.63c0,.51-.13.69-.23.78a1,1,0,0,1-.69.18,8,8,0,0,1-2.73-.72c-1-.39-1.8-.81-2.31-1a23.85,23.85,0,0,1-3.73-1.72l6-6.06a45.44,45.44,0,0,1,2.75,5.28A9.46,9.46,0,0,1,447.85,325.51ZM433,332.67a1.5,1.5,0,0,1-.49,1.27,2.78,2.78,0,0,1-1.68.42,12,12,0,0,1-3.4-.63l4.52-4.52A9,9,0,0,1,433,332.67ZM420.4,342.82v.09a.66.66,0,0,1-.32,0,5.31,5.31,0,0,1-1.53-.31l1.41-1.41c.15.44.29.85.39,1.19h0A1.58,1.58,0,0,1,420.4,342.82Zm-8.73,49.45h0a2.2,2.2,0,0,1-.31.76l-.15.1c-.09,0-.5-.11-1.09-.65a18.57,18.57,0,0,1-2.31-2.7h0a100.16,100.16,0,0,1-8-13.39c-1.74-3.35-3.39-6.7-5-10.08l9.29-9.3c1.41,2,2.84,4.05,4.21,5.92,1.12,2.6,1.58,6.07,2,9.46.16,1.22.31,2.41.62,4.27a67.14,67.14,0,0,1,1.18,10.65A22,22,0,0,1,411.67,392.27ZM437.52,386a2,2,0,0,1-.48.79c-.7-.14-2.39-.9-5.47-3.89-3.6-3.47-9.08-9.88-17.34-21.51h0q-3-4.23-5.9-8.56l7.65-7.65a14.35,14.35,0,0,0,4.78,1.1,3.42,3.42,0,0,0,2-.53,1.38,1.38,0,0,0,.52-.71c2.92,5.92,4.35,10,7,16.16a131.41,131.41,0,0,1,5.78,15.67v0l.43,1.41a23.44,23.44,0,0,1,1.26,6.12A4.92,4.92,0,0,1,437.52,386Zm23.23-18.38a16.18,16.18,0,0,1,1.53,5.65,2.11,2.11,0,0,1-.37,1.41,1.15,1.15,0,0,1-1,.38,8,8,0,0,1-3.44-1.13c-4.56-2.38-12-8.65-22.11-19.53-3.74-4-6.66-9.44-9.21-15h0c-.31-.67-.63-1.32-.95-2a22.89,22.89,0,0,0,4.74,1.24h0a14.66,14.66,0,0,0,2.09.17,5.17,5.17,0,0,0,4-1.43,5.59,5.59,0,0,0,1.21-3.56A205.6,205.6,0,0,1,456,358.72,71,71,0,0,1,460.75,367.65Zm20-16.47a19.08,19.08,0,0,1,1.3,2.62,4.7,4.7,0,0,1,.42,1.68l0,.31-.15.11a1.47,1.47,0,0,1-.61.08,12.49,12.49,0,0,1-2.65-.43c-8.74-2.1-17.6-7.71-25.46-12.73l-3.06-1.95h0c-1.17-.7-2.65-3-3.86-5v0c-.67-1.08-1.31-2.1-1.91-2.92,0,0-1.08-1.65-2.63-4a24.34,24.34,0,0,0,5.61,1,3.92,3.92,0,0,0,2.52-.72h0a5.09,5.09,0,0,0,1.45-4,16,16,0,0,0-1.45-6c3.06,2.6,6.11,5.23,9,8a187.24,187.24,0,0,1,16.62,17.13h0A53.94,53.94,0,0,1,480.73,351.18Zm20.1-15.84a3.51,3.51,0,0,1,.45,1.31,3.86,3.86,0,0,1-1.49.21c-4.74,0-9.62-1.78-14.42-3.52l-2.27-.83h0c-5.81-2.05-11.49-4.37-17.18-6.79h0c-2.12-.91-4.06-2.77-6-4.66-.77-.74-1.54-1.49-2.31-2.19h0c-1.16-1-3.21-2.76-5.53-4.71a24.57,24.57,0,0,0,4.57.71h.75A9.31,9.31,0,0,0,462,314a3.07,3.07,0,0,0,1.63-2.75,8.54,8.54,0,0,0-1.75-4.4,34.77,34.77,0,0,0-3.39-4.15l.35-.36c4.24,2.48,8.08,4.72,9.47,5.62,7.8,4.95,16.78,11,24.62,18.19A53,53,0,0,1,499.3,333,18.06,18.06,0,0,1,500.83,335.34Zm48.9-9.68h0a32.77,32.77,0,0,1,4.74,4.85,11.17,11.17,0,0,1,1.06,1.68,2.57,2.57,0,0,1,.29.95v.08l0,0a2.12,2.12,0,0,1-.9.37,10.78,10.78,0,0,1-2,.2l-1.19,0a83.87,83.87,0,0,1-18.81-2.63,221.37,221.37,0,0,1-22.25-6.74,125.15,125.15,0,0,1-15.48-6.38c-3.86-2.15-6-3.45-8.31-5,4.45.45,8.8.77,12.81,1.07l1.36.11c1.47.13,2.83.19,4.11.19,5.28,0,9-1.08,11-3.14l2.19.26c.88.18,4.14.7,7.44,1.28,1.68.29,3.36.59,4.71.86a25,25,0,0,1,2.7.62A106.74,106.74,0,0,1,549.73,325.66Zm27.69-19.14a7.33,7.33,0,0,1,1.4,1.41,1.86,1.86,0,0,1,.39.86v.09h0c0,.19-.45.66-1.27,1a11.64,11.64,0,0,1-3.27.9,68.38,68.38,0,0,1-9.19.58c-9.78,0-20.47-1.68-30.81-3.48q-6.17-1.08-12.32-2.34h-.06l-5.09-.63c-1-2.66-3.5-5.53-7.42-8.53A74.91,74.91,0,0,0,495,288q5.58-.48,9.92-1.25l.48.12.05,0c6.8,1.72,13.63,3.32,20.52,4.73q9.54,2,19.18,3.42c1.86.29,3.82.45,5.8.61h0c4.46.38,9,.79,12.47,2.49A69.26,69.26,0,0,1,577.42,306.52Zm23.9-25.45h0l2,.83h0a39.35,39.35,0,0,1,6.17,3,8,8,0,0,1,3.64,4.23,6.74,6.74,0,0,1-2.32,1.09,48,48,0,0,1-8.92,1.55h0a99.94,99.94,0,0,1-11.19.57,284.52,284.52,0,0,1-29.73-2.08A414.34,414.34,0,0,1,517.19,283a12.49,12.49,0,0,0,3.19-2.3,5.81,5.81,0,0,0,1.78-4,6.75,6.75,0,0,0-1.3-3.75h.24c11.62.94,22.31,1.39,32.86,1.39,2.22,0,4.43,0,6.65-.06s4.36-.24,6.58-.42h0c2.55-.23,5.14-.4,7.54-.4a25.64,25.64,0,0,1,6.65.69A139.1,139.1,0,0,1,601.32,281.07Zm21.38-23.62h0a1.82,1.82,0,0,1,.47,1l0,.15v0c-.07.31-.51.83-1.41,1.38a20.07,20.07,0,0,1-3.92,1.69c-20.15,6.63-43.63,6.79-62.55,6.91l-2.41,0c-10.41,0-21.29-.45-32.38-1.31h0l-1.77-.07-5.31-.47a74.48,74.48,0,0,0-16.9-6.43l.42-.18a10.6,10.6,0,0,1,2.12-.39c3.05-.33,8.34-.4,13.56-.4,4.1,0,8.18,0,11.15,0h2.1c15.63-.24,29.48-1,42.34-2.43,7.28-.8,14.37-1.8,21.14-3h0c1.77-.33,3.68-.83,5.61-1.33A42,42,0,0,1,605,250.9a11.38,11.38,0,0,1,2.71.29l1.41.34a67.32,67.32,0,0,1,7.61,2.2C619.26,254.68,621.53,255.93,622.7,257.45Zm8.58-25.21h0a7,7,0,0,1,1.26.86c.34.31.47.59.45.66v0a2.74,2.74,0,0,1-1,1.36c-2.25,2-8.32,4.94-19.79,8.05-25.71,7-55.08,10.54-87.33,10.54q-7.14,0-14.25-.22a25.89,25.89,0,0,0,4.83-4,9.46,9.46,0,0,0,2.31-4.06c23-2.8,55.28-7.83,74.45-12.69h.1l2-.53h0l.25-.07h0c.75-.19,1.45-.39,2.12-.58,3.33-1,6.65-2,9.94-3.09a9.11,9.11,0,0,1,2.8-.36,31.79,31.79,0,0,1,4,.32h0l2.4.28h0C621.13,229.23,627,229.88,631.28,232.24Zm-3.46-34.9h0a108.16,108.16,0,0,0,12.69-4.88c-4,3.53-8.59,6.84-11.81,9.46h0l-2.15,1.74a59.19,59.19,0,0,0-13-2C618.6,200,623,198.87,627.82,197.34Zm-12.56,9.78a42,42,0,0,1,7.3,1.39,22.15,22.15,0,0,1,4.1,1.64h0l.44.23a4.11,4.11,0,0,1,1,.77c.2.22.23.35.23.4v0a1.89,1.89,0,0,1-.5.94c-1.18,1.47-5.14,4.21-15.88,8.15h0l-.93.35-1,.39c-1.47.55-2.94,1.07-4.43,1.57l-.24.07h0c-1.42.48-2.85.93-4.28,1.37h0l-.24.08c-3,.92-6.06,1.76-9,2.53-3.56.94-7.06,1.77-10.35,2.54-11.14,2.62-23.34,4.91-37.3,7q-8.88,1.35-17.74,2.55c-3,.41-6,.79-8.94,1.16l-1,.09a14.23,14.23,0,0,0-4.53-3.36c-.65-.32-1.27-.58-1.83-.81,8.75-2.58,42.95-12.75,58.69-19.19q8-3.25,15.8-7c.67-.32,1.32-.68,2-1h0a27.71,27.71,0,0,1,3.07-1.49c.31-.1.61-.2.89-.27l.16,0h0a3.38,3.38,0,0,1,.84-.13h0c2.87-.19,5.71-.3,8.58-.34l5.5-.06A89.6,89.6,0,0,1,615.26,207.12Zm8.07-38.67a188.41,188.41,0,0,0,20.93-11.19A166,166,0,0,1,621.71,181a5,5,0,0,0-.83-2.12,8.88,8.88,0,0,0-4.67-3.23,23.12,23.12,0,0,0-6.74-1C612.63,173.28,617.71,171.09,623.33,168.45Zm-16.45,12.71c1.08,0,2.15,0,3.22.11a16.32,16.32,0,0,1,4.84.9c.85.35,1,.66,1,.7h0l0,.12a2,2,0,0,1-.35.91c-1.81,3.13-6.33,6-10,8.18h0l-2,1.23C591.6,201,577.93,206.76,566,211.6c-13.27,5.41-27,10.25-40.91,14.4q-10.12,3-20.35,5.55L497,233.22a68.43,68.43,0,0,0-7.95-.58c.92-.61,1.77-1.21,2.55-1.81l19.73-7.73h0c12.91-5.26,23.49-10,33.31-15a309.55,309.55,0,0,0,32.27-18.91c2.29-1.56,4.54-3.13,6.39-4.59l1.09-.22h0c2.47-.54,5-1.07,7.41-1.54A83,83,0,0,1,606.88,181.16Zm-1.37-24.27a26,26,0,0,1-2.27,3.26l0,0a52.17,52.17,0,0,1-5.44,5.79h0c-.2.2-.43.38-.66.59q-2.49,2.1-5.06,4.11l-1.11.87c-1.68,1.31-3.38,2.59-5.06,3.82l-.33.24q-2.53,1.85-5,3.58h0l-.71.48h0c-1.78,1.22-3.54,2.42-5.25,3.56h0c-2.12,1.41-4.21,2.77-6.21,4.05a333,333,0,0,1-67.54,33.62l.3-.43c2.33-3.49,3.58-6.4,3.59-8.84a4.93,4.93,0,0,0-1.66-3.84l1.1-.62c5.94-3.49,16.08-9.54,21.92-13.23a390,390,0,0,0,33.7-23.49c.75-.6,1.49-1.23,2.23-1.87h0a40.55,40.55,0,0,1,3.32-2.65c.34-.23.67-.45,1-.65a11.53,11.53,0,0,1,1.2-.63c3.11-1.35,6.23-2.64,9.39-3.85,1.79-.69,3.6-1.36,5.41-2s3.48-1.2,5.24-1.75l1.86-.58c4.24-1.34,9-2.85,13.16-2.85a15,15,0,0,1,2.8.25h0a1.91,1.91,0,0,1,.92.35l.06.11,0,.22A5.51,5.51,0,0,1,605.51,156.89Zm6.55-5.57a6.64,6.64,0,0,0-3-2.79,12.41,12.41,0,0,0-5.45-1.05,31,31,0,0,0-5.8.63l-.07,0-.26.07c13.92-9.46,29.7-20.06,48.82-37.06A510.12,510.12,0,0,1,612.06,151.32Z"/><path class="cls-2" d="M340.1,146.91a2,2,0,0,0,1.73,2,.72.72,0,0,0,.29.06.68.68,0,0,0,.29-.06,2,2,0,0,0,1.77-2,2.07,2.07,0,0,0-2.06-2A2,2,0,0,0,340.1,146.91Z"/><path class="cls-2" d="M337.83,161.29a.73.73,0,0,0,.21-.52v-.83a.73.73,0,0,0-.21-.52.79.79,0,0,0-.52-.22h-2.18V148.12h2.18a.74.74,0,0,0,.52-.22.7.7,0,0,0,.21-.52v-.83a.73.73,0,0,0-.21-.52.74.74,0,0,0-.52-.22h-2.18V142.5a8.87,8.87,0,0,1,.69-3.84c.41-.77.82-1,1.31-1.08a1.36,1.36,0,0,0-.05.36,2.56,2.56,0,0,0,.54,1.67,2.11,2.11,0,0,0,1.66.72,2.25,2.25,0,0,0,1.37-.49,1.84,1.84,0,0,0,.72-1.44A2.79,2.79,0,0,0,340,136a4.49,4.49,0,0,0-2.43-.65,5.91,5.91,0,0,0-4.89,2.35c-1.2,1.6-1.85,3.95-1.85,7.11v1h-2a.75.75,0,0,0-.53.22.78.78,0,0,0-.21.52v.83a.74.74,0,0,0,.21.52.75.75,0,0,0,.53.22h2V159.2h-2a.79.79,0,0,0-.53.22.78.78,0,0,0-.21.52v.83a.78.78,0,0,0,.21.52.75.75,0,0,0,.53.22h8.46A.74.74,0,0,0,337.83,161.29Z"/><path class="cls-2" d="M333.31,212.3l-.08-.24a.75.75,0,0,0-.65-.51.74.74,0,0,0-.71.42l-.12.24-.06.23a2,2,0,0,1-.12.52l-.06.08a1.43,1.43,0,0,1-.36.07,5.49,5.49,0,0,1-.58,0h-.14a3.08,3.08,0,0,1-.53,0h0a2.56,2.56,0,0,1-.06-.53h0c0-.26-.05-2.13-.06-2.66h0v-.75c.44,0,1,0,1.11,0h.07l0,.31.11.39.09.15a.77.77,0,0,0,.72.35.74.74,0,0,0,.62-.52l.09-.31,0-.28v0c0-.18,0-.61,0-.83v0a3.44,3.44,0,0,1,0-.52l0-.38v-.08l-.1-.3-.07-.13a.74.74,0,0,0-.56-.37.72.72,0,0,0-.63.25l-.15.16-.2,0-1,0h-.31l-.07-3.19h1l.3.05h0l0,.29.09.35.11.21a.73.73,0,0,0,.65.39.74.74,0,0,0,.65-.39l.09-.17.09-.28c0-.27,0-.85,0-1.08a2.85,2.85,0,0,1,.05-.41,3.61,3.61,0,0,0,.05-.38l-.05-.27-.06-.14a.71.71,0,0,0-.4-.4.71.71,0,0,0-.57,0l-.14.06h0l-.37.05c-.25,0-2.85.07-2.92.07l-.52,0h-1l-.41.12-.21.14a.74.74,0,0,0-.06,1.17l.1.09.07,0,.13.07a.42.42,0,0,0,.15,0s.05,0,.08,0l.31,0,0,.21v0c0,.45,0,.89.09,3.37l.05,2.77h0c0,.83,0,1.59,0,2.19s0,.89,0,1.15c0,.1,0,.19,0,.26l-.13,0-.35.17-.1.1a.73.73,0,0,0,.13,1.18l.22.13.41.09c.21,0,.49,0,.7,0h.07l.46,0h.17l.8,0h0l1.41,0h.84a2,2,0,0,0,.84-.16,1,1,0,0,0,.42-.44l.13-.42v0a13.78,13.78,0,0,0,.15-1.61v-.11Z"/><path class="cls-2" d="M333.62,203.13l.1.11h0a.64.64,0,0,0,.41.2l.31,0,0,.21h0c0,.23,0,.45,0,.93s0,1.2,0,2.42h0l0,2.78c0,1.5,0,2.77-.09,3.34a1.56,1.56,0,0,1,0,.27l-.13,0-.37.18-.1.09a.73.73,0,0,0-.24.61.76.76,0,0,0,.34.57l.21.13.39.11c.21,0,.49,0,.75,0h.53c.36,0,.75,0,1.26.05h0c.53,0,1.23.06,2.18.07h.14a1.77,1.77,0,0,0,.95-.21,1.16,1.16,0,0,0,.36-.43l.11-.33v0a13.52,13.52,0,0,0,.22-1.69l0-.29-.08-.23a.74.74,0,0,0-1.33-.12l-.12.2-.09.26a1.82,1.82,0,0,1-.23.63l-.21.11a6.48,6.48,0,0,1-1.67,0l-.06,0a2.64,2.64,0,0,1-.08-.59c0-.4,0-1,0-1.71,0-.26,0-.54,0-.85l0-2.81h0c0-2.45,0-2.87.06-3.35v0l0-.22.26,0,.39-.16.11-.09a.74.74,0,0,0,.27-.62.72.72,0,0,0-.35-.58l-.21-.13-.38-.1h-.86l-.39,0h-.16c-.13,0-.9-.06-1.48-.06l-.4.12-.2.12a.75.75,0,0,0-.34.54A.69.69,0,0,0,333.62,203.13Z"/><path class="cls-2" d="M367.24,210.19h0c0-.32.05-.62.05-.91a6.68,6.68,0,0,0-1-3.68,5.33,5.33,0,0,0-2.94-2.19,11.48,11.48,0,0,0-2.64-.45l-1.14-.09-.42,0h-.22c-.1,0-.88-.12-1.46-.18l-.38.07-.21.1a.7.7,0,0,0-.41.49.72.72,0,0,0,.14.63l.09.11.45.28.3,0v.22c0,.47-.06.9-.3,3.36h0l-.29,2.77h0c-.14,1.5-.26,2.75-.39,3.32h0a.83.83,0,0,1-.06.25h-.12l-.42.17-.11.09a.77.77,0,0,0-.27.6.8.8,0,0,0,.32.57l.18.13h0l.14.07.13,0h0c.28,0,.57,0,.78.05h.5c.09,0,.5.11,1,.2s1.26.22,1.86.28c.24,0,.48,0,.7,0a5.47,5.47,0,0,0,4-1.67A8,8,0,0,0,367.24,210.19Zm-2.67.24h0a5.78,5.78,0,0,1-1.2,3.19h0a3.32,3.32,0,0,1-2.34,1l-.31,0a4.51,4.51,0,0,1-1.36-.3l-.16-.1V214c0-.2,0-.45,0-.65h0c0-.3.14-1.73.32-3.39h0l.18-1.94.32-3h.27a5.88,5.88,0,0,1,2,.46,3.56,3.56,0,0,1,1.55,1.4,5.33,5.33,0,0,1,.78,2.91C364.6,209.94,364.59,210.18,364.57,210.43Z"/><path class="cls-2" d="M304.59,215.37l-.49-.14-.35,0h0l-.07-.22v0c-.13-.56-.28-1.81-.47-3.31l-.34-2.76c-.3-2.44-.35-2.87-.38-3.34h0l0-.21v0l.16-.05.35-.22.09-.1a.74.74,0,0,0,.17-.65.75.75,0,0,0-.43-.52l-.23-.1-.4-.05-1.24.21c-.13,0-.88.06-1.32.12l-.35.15-.2.15a.76.76,0,0,0-.28.6.74.74,0,0,0,.31.59l.12.07.4.14h.2a1.49,1.49,0,0,1,.05.22h0c.09.46.13.9.44,3.34h0l.33,2.75h0c.2,1.49.34,2.72.37,3.32,0,.1,0,.19,0,.27l-.1,0-.36.22-.11.12a.73.73,0,0,0-.16.64.72.72,0,0,0,.41.52l.23.1.41.06,1.26-.22h.13c.3,0,.91-.07,1.47-.14l.35-.15.19-.15a.73.73,0,0,0,.29-.6.71.71,0,0,0-.31-.58Z"/><path class="cls-2" d="M314.4,212.27l-.11-.23a.72.72,0,0,0-.75-.4l-.39.15a.88.88,0,0,0-.33.49l0,.31h0a3,3,0,0,1-.08.52,1.7,1.7,0,0,1-.15.46h0a1.1,1.1,0,0,1-.56.45,3.7,3.7,0,0,1-1.08.22l-.32,0a3.66,3.66,0,0,1-2.74-1.34,6,6,0,0,1-1.37-3.31,11.28,11.28,0,0,1-.06-1.13,4.22,4.22,0,0,1,.71-2.59h0a2.8,2.8,0,0,1,2.35-1.12h0l.39,0a2.9,2.9,0,0,1,1.73.48,1.81,1.81,0,0,1,.45,1.07h0l.08.39.2.34a.9.9,0,0,0,.58.25H313l.42-.19a.92.92,0,0,0,.28-.47l0-.28v-.17h0c0-.19,0-.43-.05-.73s-.05-.64-.05-.87v0c0-.27,0-.44,0-.56v-.36a.76.76,0,0,0-.27-.49l-.19-.16-.48-.16h-.09c-.31,0-.69,0-1.16-.1a7.51,7.51,0,0,0-1.05-.07,7.68,7.68,0,0,0-1,.06h0a5.52,5.52,0,0,0-4.35,2.37,7.53,7.53,0,0,0-1.2,4.22c0,.25,0,.48,0,.68h0a7.55,7.55,0,0,0,2.25,5,5.87,5.87,0,0,0,4.12,1.52c.29,0,.59,0,.9,0a9.46,9.46,0,0,0,1.38-.23,4.55,4.55,0,0,0,1.24-.45l0,0a1.41,1.41,0,0,0,.43-.41,1.7,1.7,0,0,0,.17-.58c.08-.57.11-1.64.12-2v-.19Z"/><path class="cls-2" d="M325.78,213.72l-.42-.13-.37,0,0-.21h0c-.09-.59-.17-1.84-.25-3.34h0l-.16-2.78h0c-.13-2.48-.15-2.9-.15-3.37v-.24l.16,0,.36-.2.1-.1a.71.71,0,0,0,.21-.63.69.69,0,0,0-.39-.54l-.21-.12-.39-.09-.79.07-.35,0-.13,0c-.14,0-.9,0-1.48,0l-.36.12-.2.14a.78.78,0,0,0-.34.6.76.76,0,0,0,.31.62l.11.07.39.14.33,0,0,.2v0c.05.45.07.89.2,3.06l-4.22.23c-.12-2.18-.14-2.61-.14-3V204l.19-.05.32-.18.1-.09a.76.76,0,0,0,.23-.64.72.72,0,0,0-.39-.55l-.21-.12-.39-.08-.79.07-.35,0h-.7c-.28,0-.62,0-.92,0l-.36.13-.21.14a.73.73,0,0,0-.32.58.71.71,0,0,0,.28.6l.11.09.07,0,.13.06.15,0,.07,0,.33,0,0,.21h0c0,.46.07.9.21,3.36l.15,2.77c.07,1.31.13,2.42.13,3.09v.26c0,.1,0,.19,0,.26l-.11,0-.36.19-.1.1a.75.75,0,0,0-.22.63.71.71,0,0,0,.38.55l.21.12.4.08.79-.06.34,0h.11c.08,0,.9,0,1.65,0l.38-.14.2-.14a.77.77,0,0,0,.31-.59.79.79,0,0,0-.29-.6l-.11-.07-.44-.16-.39,0c0-.05,0-.13,0-.23h0c-.09-.57-.17-1.82-.24-3.33h0l-.06-1,4.23-.23.05,1c.07,1.23.12,2.28.12,3v.39h0c0,.1,0,.18,0,.26l-.13,0-.37.21-.1.11a.73.73,0,0,0-.18.62.71.71,0,0,0,.37.53l.22.11.42.09.76-.07.35,0,.12,0c.14,0,.91,0,1.61,0l.4-.14.21-.15a.7.7,0,0,0,.3-.6.72.72,0,0,0-.31-.6Zm-7.88,1.68Z"/></g><path class="cls-3" d="M332.5,424.81,203.87,296.17,270,230H394.92l66.22,66.17ZM221.81,296.17,332.5,406.87l110.69-110.7-53.53-53.48H275.3Z"/><path class="cls-3" d="M352.75,304.73v4H338.51v61.52h14.24v4H311.26v-4H324.8V308.77H311.26v-4H324.8v-8.61c0-30.06,12.48-42.71,29.36-42.71,6.85,0,14.76,3.16,14.76,11.42,0,3.51-3.51,5.8-6.5,5.8-4.75,0-7.21-3.34-7.21-8.09,0-1.93,1.41-2.1,1.41-4.39,0-.88-3-1-4.22-1-8.44,0-13.89,10.19-13.89,27.77v19.86Z"/><path class="cls-3" d="M382.69,306.49a6.36,6.36,0,1,1-6.36-6.36,6.36,6.36,0,0,1,6.36,6.36"/></g></g></svg>